<?xml version="1.0" encoding="UTF-8" standalone="no"?>
<!DOCTYPE svg PUBLIC "-//W3C//DTD SVG 1.1//EN" "http://www.w3.org/Graphics/SVG/1.1/DTD/svg11.dtd">
<svg width="100%" height="100%" viewBox="0 0 48 48" version="1.1" xmlns="http://www.w3.org/2000/svg" xmlns:xlink="http://www.w3.org/1999/xlink" xml:space="preserve" xmlns:serif="http://www.serif.com/" style="fill-rule:evenodd;clip-rule:evenodd;stroke-linejoin:round;stroke-miterlimit:2;">
    <g id="Capa_4">
        <path d="M20.59,30.68C20.528,30.665 20.462,30.665 20.4,30.68L19.53,27.63C19.579,27.569 19.62,27.502 19.65,27.43C19.722,27.308 19.76,27.169 19.76,27.028C19.76,26.736 19.598,26.467 19.34,26.33C18.897,26.214 18.433,26.452 18.27,26.88C18.238,26.957 18.214,27.038 18.2,27.12L14.85,29.4C14.805,29.362 14.755,29.332 14.7,29.31C14.63,29.299 14.56,29.299 14.49,29.31L13.35,26.96L13.35,26.89C13.422,26.768 13.46,26.629 13.46,26.488C13.46,26.196 13.298,25.927 13.04,25.79C12.617,25.676 12.169,25.896 12,26.3C11.965,26.37 11.938,26.444 11.92,26.52L9,28.05C8.949,28.007 8.892,27.974 8.83,27.95C8.39,27.83 7.925,28.071 7.77,28.5C7.698,28.621 7.661,28.758 7.661,28.898C7.661,29.189 7.823,29.456 8.08,29.59C8.528,29.695 8.987,29.437 9.13,29C9.159,28.929 9.183,28.855 9.2,28.78L12.2,27.26C12.248,27.301 12.302,27.335 12.36,27.36C12.465,27.385 12.575,27.385 12.68,27.36L13.78,29.61C13.741,29.663 13.708,29.72 13.68,29.78C13.57,29.919 13.51,30.092 13.51,30.269C13.51,30.589 13.704,30.878 14,31C14.431,31.073 14.856,30.822 15,30.41C15.031,30.332 15.058,30.251 15.08,30.17L18.42,27.85C18.462,27.891 18.514,27.922 18.57,27.94C18.633,27.95 18.697,27.95 18.76,27.94L19.63,30.94C19.581,31.004 19.54,31.075 19.51,31.15C19.438,31.271 19.401,31.408 19.401,31.548C19.401,31.839 19.563,32.106 19.82,32.24C20.261,32.368 20.731,32.13 20.89,31.7C21.072,31.336 20.94,30.887 20.59,30.68ZM8.78,28.91C8.701,29.123 8.469,29.241 8.25,29.18C8.12,29.111 8.038,28.975 8.038,28.827C8.038,28.758 8.056,28.69 8.09,28.63C8.174,28.416 8.409,28.298 8.63,28.36C8.758,28.427 8.838,28.561 8.838,28.705C8.838,28.777 8.818,28.848 8.78,28.91ZM14.67,30.27C14.591,30.483 14.361,30.605 14.14,30.55C14.018,30.478 13.943,30.347 13.943,30.205C13.943,30.133 13.963,30.062 14,30C14.08,29.782 14.318,29.663 14.54,29.73C14.659,29.797 14.733,29.924 14.733,30.061C14.733,30.135 14.711,30.208 14.67,30.27ZM19.31,27.27C19.227,27.485 18.994,27.606 18.77,27.55C18.642,27.483 18.562,27.349 18.562,27.205C18.562,27.133 18.582,27.062 18.62,27C18.699,26.787 18.929,26.665 19.15,26.72C19.336,26.825 19.407,27.06 19.31,27.25L19.31,27.27Z" style="fill:none;fill-rule:nonzero;stroke:rgb(24,124,166);stroke-width:0.3px;"/>
        <path d="M43.1,12.86L43,12.79C42.822,12.669 42.615,12.597 42.4,12.58C42.265,12.428 42.102,12.302 41.92,12.21L24.98,3.21C24.398,2.904 23.702,2.904 23.12,3.21L6.18,12.21C5.998,12.302 5.835,12.428 5.7,12.58C5.485,12.597 5.278,12.669 5.1,12.79L4.95,12.86C4.385,13.119 4.016,13.679 4,14.3L4,33.61C4.007,34.22 4.355,34.777 4.9,35.05L22.58,44.42C22.729,44.499 22.887,44.559 23.05,44.6C23.3,44.855 23.643,44.999 24,44.999C24.357,44.999 24.7,44.855 24.95,44.6C25.113,44.559 25.271,44.499 25.42,44.42L43.1,35.05C43.645,34.777 43.993,34.22 44,33.61L44,14.3C43.993,13.69 43.645,13.133 43.1,12.86ZM24,5.42L39.63,13.7L34.36,16.33L24,21.51L15.86,17.51L8.37,13.7L24,5.42ZM6.5,33.21L6.5,15.42L22.75,23.51L22.75,41.83L6.5,33.21ZM25.25,41.83L25.25,23.51L25.68,23.3L41.5,15.42L41.5,33.21L25.25,41.83Z" style="fill:none;fill-rule:nonzero;stroke:rgb(24,124,166);stroke-width:0.3px;"/>
        <path d="M39.63,28.08L37.13,29.25L37.13,25.17L34.62,26.33L34.62,21.67L32,23.05L32.13,28.05L29.63,29.28L29.63,33.13L27.13,34.38L27.13,38.03L39.63,31.55L39.63,28.08Z" style="fill:none;fill-rule:nonzero;stroke:rgb(24,124,166);stroke-width:0.3px;"/>
        <path d="M18.73,15.7C18.958,16.108 19.393,16.358 19.86,16.35C20.05,16.353 20.239,16.312 20.41,16.23L28,12.75C28.419,12.571 28.691,12.157 28.691,11.702C28.691,11.524 28.65,11.349 28.57,11.19C28.239,10.608 27.509,10.372 26.9,10.65L19.3,14.14C18.88,14.315 18.605,14.728 18.605,15.183C18.605,15.363 18.648,15.54 18.73,15.7Z" style="fill:none;fill-rule:nonzero;stroke:rgb(24,124,166);stroke-width:0.3px;"/>
    </g>
</svg>
