<?xml version="1.0" encoding="UTF-8" standalone="no"?>
<!DOCTYPE svg PUBLIC "-//W3C//DTD SVG 1.1//EN" "http://www.w3.org/Graphics/SVG/1.1/DTD/svg11.dtd">
<svg width="100%" height="100%" viewBox="0 0 48 48" version="1.1" xmlns="http://www.w3.org/2000/svg" xmlns:xlink="http://www.w3.org/1999/xlink" xml:space="preserve" xmlns:serif="http://www.serif.com/" style="fill-rule:evenodd;clip-rule:evenodd;stroke-linejoin:round;stroke-miterlimit:2;">
    <g id="Capa_4">
        <path d="M29.12,2C29.119,2 29.118,2 29.117,2C19.863,2 12.247,9.615 12.247,18.87C12.247,22.928 13.712,26.853 16.37,29.92L2.37,43.92C1.901,44.389 1.901,45.161 2.37,45.63C2.842,46.093 3.608,46.093 4.08,45.63L18.08,31.63C21.145,34.28 25.064,35.74 29.115,35.74C38.37,35.74 45.985,28.125 45.985,18.87C45.985,9.617 38.373,2.003 29.12,2ZM29.12,33.34C21.182,33.34 14.65,26.808 14.65,18.87C14.65,10.932 21.182,4.4 29.12,4.4C37.058,4.4 43.59,10.932 43.59,18.87C43.59,18.873 43.59,18.877 43.59,18.88C43.579,26.812 37.052,33.335 29.12,33.34Z" style="fill:none;fill-rule:nonzero;stroke:rgb(24,124,166);stroke-width:0.3px;"/>
        <path d="M21.81,13.46C21.837,13.461 21.863,13.461 21.89,13.461C23.217,13.461 24.31,12.369 24.31,11.041C24.31,9.714 23.217,8.621 21.89,8.621C20.578,8.621 19.492,9.688 19.47,11C19.469,11.027 19.469,11.054 19.469,11.08C19.469,12.371 20.519,13.439 21.81,13.46Z" style="fill:none;fill-rule:nonzero;stroke:rgb(24,124,166);stroke-width:0.3px;"/>
        <path d="M35.07,14.07C35.1,14.071 35.13,14.072 35.16,14.072C36.493,14.072 37.59,12.975 37.59,11.642C37.59,10.309 36.493,9.212 35.16,9.212C33.828,9.212 32.731,10.308 32.73,11.64C32.708,12.947 33.763,14.043 35.07,14.07Z" style="fill:none;fill-rule:nonzero;stroke:rgb(24,124,166);stroke-width:0.3px;"/>
        <path d="M37.75,15.26L32.75,15.26C32.75,15.26 32.75,13.609 32.75,13.609C32.75,12.512 31.847,11.609 30.75,11.609C30.73,11.609 30.71,11.609 30.69,11.61L26.36,11.61C26.34,11.609 26.32,11.609 26.3,11.609C25.203,11.609 24.3,12.512 24.3,13.609C24.3,13.609 24.3,14.66 24.3,14.66L19.3,14.66C18.113,14.632 17.112,15.583 17.08,16.77L17.08,24.6C17.097,25.254 17.433,25.86 17.98,26.22C18.423,26.531 18.949,26.702 19.49,26.71L19.49,17.07L24.3,17.07L24.3,26.7C24.841,26.694 25.368,26.523 25.81,26.21C26.357,25.85 26.693,25.244 26.71,24.59L26.71,14.05L30.33,14.05L30.33,26.28C30.414,27.538 31.48,28.523 32.74,28.51L32.74,17.67L37.56,17.67L37.56,28.52C38.832,28.549 39.915,27.559 40,26.29C40,26.29 40,17.49 40,17.49C40,16.267 38.993,15.26 37.77,15.26C37.763,15.26 37.757,15.26 37.75,15.26Z" style="fill:none;fill-rule:nonzero;stroke:rgb(24,124,166);stroke-width:0.3px;"/>
        <path d="M28.46,10.85C29.557,10.85 30.46,9.947 30.46,8.85C30.46,7.753 29.557,6.85 28.46,6.85C27.363,6.85 26.46,7.753 26.46,8.85C26.46,9.947 27.363,10.85 28.46,10.85Z" style="fill:none;fill-rule:nonzero;stroke:rgb(24,124,166);stroke-width:0.3px;"/>
    </g>
</svg>
