<?xml version="1.0" encoding="UTF-8" standalone="no"?>
<!DOCTYPE svg PUBLIC "-//W3C//DTD SVG 1.1//EN" "http://www.w3.org/Graphics/SVG/1.1/DTD/svg11.dtd">
<svg width="100%" height="100%" viewBox="0 0 48 48" version="1.1" xmlns="http://www.w3.org/2000/svg" xmlns:xlink="http://www.w3.org/1999/xlink" xml:space="preserve" xmlns:serif="http://www.serif.com/" style="fill-rule:evenodd;clip-rule:evenodd;stroke-linejoin:round;stroke-miterlimit:2;">
    <g id="Capa_4">
        <path d="M43.44,2L4.56,2C3.154,2.005 2,3.164 2,4.57L2,31.14C2,32.546 3.154,33.705 4.56,33.71L21.56,33.71L21.56,43.54L9.33,43.54L9.33,46L36.22,46L36.22,43.54L24,43.54L24,33.71L43.44,33.71C44.846,33.705 46,32.546 46,31.14L46,4.57C46,3.164 44.846,2.005 43.44,2ZM43.56,31.14C43.56,31.206 43.506,31.26 43.44,31.26L4.56,31.26C4.494,31.26 4.44,31.206 4.44,31.14L4.44,4.57C4.44,4.57 4.44,4.57 4.44,4.57C4.44,4.509 4.49,4.46 4.55,4.46C4.553,4.46 4.557,4.46 4.56,4.46L43.44,4.46C43.443,4.46 43.447,4.46 43.45,4.46C43.51,4.46 43.56,4.509 43.56,4.57C43.56,4.57 43.56,4.57 43.56,4.57L43.56,31.14Z" style="fill:none;fill-rule:nonzero;stroke:rgb(26,127,182);stroke-width:0.3px;"/>
        <path d="M37.21,11.12L32.91,11.12L32.91,7.9C33.004,7.563 32.957,7.202 32.78,6.9C32.527,6.478 32.05,6.239 31.56,6.29C28.852,6.118 26.169,6.92 24,8.55C21.835,6.909 19.152,6.096 16.44,6.26C16.399,6.256 16.358,6.254 16.317,6.254C15.614,6.254 15.037,6.832 15.037,7.534C15.037,7.658 15.055,7.781 15.09,7.9L15.09,11.12L10.79,11.12C9.991,11.125 9.335,11.781 9.33,12.58L9.33,27.33C9.33,27.754 9.517,28.156 9.84,28.43C10.164,28.702 10.595,28.812 11.01,28.73C15.038,27.99 19.165,27.97 23.2,28.67L23.29,28.67L23.51,28.76L24.49,28.76L24.71,28.67L24.8,28.67C28.838,27.969 32.969,27.989 37,28.73C37.415,28.812 37.846,28.702 38.17,28.43C38.493,28.156 38.68,27.754 38.68,27.33C38.68,27.33 38.68,12.58 38.68,12.58C38.68,11.779 38.021,11.12 37.22,11.12C37.217,11.12 37.213,11.12 37.21,11.12ZM30.46,23.75C29.01,24.27 27.55,24.88 26.13,25.47L25.22,25.85L25.22,10.69C26.733,9.525 28.555,8.829 30.46,8.69L30.46,23.75ZM17.54,8.67C19.445,8.809 21.267,9.505 22.78,10.67L22.78,25.85L21.87,25.47C20.45,24.88 18.99,24.27 17.54,23.75L17.54,8.67ZM11.78,13.58L15.09,13.58L15.09,24.27C15.049,24.416 15.029,24.568 15.03,24.72C15.06,25.134 15.292,25.508 15.65,25.72C14.354,25.773 13.062,25.897 11.78,26.09L11.78,13.58ZM36.22,26.11C34.938,25.917 33.646,25.793 32.35,25.74C32.708,25.528 32.94,25.154 32.97,24.74C32.971,24.588 32.951,24.436 32.91,24.29L32.91,13.58L36.22,13.58L36.22,26.11Z" style="fill:none;fill-rule:nonzero;stroke:rgb(26,127,182);stroke-width:0.3px;"/>
    </g>
</svg>
