<?xml version="1.0" encoding="UTF-8" standalone="no"?>
<!DOCTYPE svg PUBLIC "-//W3C//DTD SVG 1.1//EN" "http://www.w3.org/Graphics/SVG/1.1/DTD/svg11.dtd">
<svg width="100%" height="100%" viewBox="0 0 48 48" version="1.1" xmlns="http://www.w3.org/2000/svg" xmlns:xlink="http://www.w3.org/1999/xlink" xml:space="preserve" xmlns:serif="http://www.serif.com/" style="fill-rule:evenodd;clip-rule:evenodd;stroke-linejoin:round;stroke-miterlimit:2;">
    <g id="Capa_4">
        <path d="M45.58,39.24L44.51,39.11C44.435,38.957 44.348,38.809 44.25,38.67L44.67,37.67C44.502,37.472 44.318,37.288 44.12,37.12L43.12,37.54C42.978,37.449 42.831,37.366 42.68,37.29L42.54,36.21C42.296,36.122 42.045,36.055 41.79,36.01L41.14,36.87L40.63,36.87L40,36C39.748,36.047 39.501,36.114 39.26,36.2L39.12,37.28C38.968,37.354 38.821,37.437 38.68,37.53L37.68,37.11C37.484,37.281 37.301,37.464 37.13,37.66L37.55,38.66C37.455,38.8 37.371,38.947 37.3,39.1L36.22,39.23C36.129,39.481 36.056,39.739 36,40L36.87,40.66C36.865,40.743 36.865,40.827 36.87,40.91C36.865,40.993 36.865,41.077 36.87,41.16L36,41.82C36.053,42.074 36.119,42.324 36.2,42.57L37.28,42.7C37.354,42.852 37.437,42.999 37.53,43.14L37.11,44.14C37.281,44.336 37.464,44.519 37.66,44.69L38.66,44.27C38.801,44.363 38.948,44.446 39.1,44.52L39.24,45.6C39.482,45.682 39.729,45.749 39.98,45.8L40.64,44.93L41.15,44.93L41.8,45.8C42.054,45.75 42.305,45.683 42.55,45.6L42.69,44.52C42.841,44.444 42.988,44.361 43.13,44.27L44.13,44.69C44.328,44.522 44.512,44.338 44.68,44.14L44.26,43.14C44.356,42.999 44.443,42.852 44.52,42.7L45.59,42.57C45.675,42.325 45.742,42.075 45.79,41.82L44.93,41.16L44.93,40.66L45.79,40C45.742,39.741 45.672,39.487 45.58,39.24ZM40.89,43.67C39.37,43.67 38.12,42.42 38.12,40.9C38.12,39.38 39.37,38.13 40.89,38.13C42.41,38.13 43.66,39.38 43.66,40.9C43.66,42.42 42.41,43.67 40.89,43.67Z" style="fill:none;fill-rule:nonzero;stroke:rgb(26,127,182);stroke-width:0.3px;"/>
        <path d="M45.33,32.11L45.33,31.92L46,31.45C45.971,31.261 45.931,31.074 45.88,30.89L45.07,30.75C45.019,30.634 44.963,30.52 44.9,30.41L45.25,29.68C45.133,29.523 44.998,29.378 44.85,29.25L44.09,29.53C43.987,29.454 43.88,29.384 43.77,29.32L43.7,28.51C43.522,28.437 43.338,28.38 43.15,28.34L42.63,28.96L42.25,28.96L41.79,28.29C41.597,28.315 41.406,28.355 41.22,28.41L41.08,29.21C40.967,29.264 40.857,29.324 40.75,29.39L40,29C39.85,29.122 39.706,29.252 39.57,29.39L39.85,30.16C39.778,30.263 39.711,30.37 39.65,30.48L38.84,30.54C38.77,30.723 38.709,30.91 38.66,31.1L39.29,31.62L39.29,32L38.62,32.46C38.649,32.653 38.692,32.844 38.75,33.03L39.55,33.16C39.6,33.278 39.66,33.392 39.73,33.5L39.38,34.24C39.499,34.389 39.63,34.53 39.77,34.66L40.53,34.38C40.63,34.459 40.737,34.529 40.85,34.59L40.92,35.4C41.098,35.472 41.282,35.529 41.47,35.57L42,35L42.38,35L42.84,35.66C43.034,35.641 43.225,35.601 43.41,35.54L43.55,34.74C43.668,34.69 43.782,34.63 43.89,34.56L44.62,34.91C44.773,34.791 44.916,34.66 45.05,34.52L44.77,33.76C44.84,33.65 44.91,33.55 44.97,33.44L45.78,33.37C45.859,33.194 45.92,33.009 45.96,32.82L45.33,32.3C45.334,32.237 45.334,32.173 45.33,32.11ZM44.19,32.05C44.126,33.033 43.299,33.808 42.314,33.808C41.283,33.808 40.434,32.96 40.434,31.928C40.434,30.897 41.283,30.048 42.314,30.048C42.339,30.048 42.365,30.049 42.39,30.05C43.393,30.096 44.193,30.934 44.193,31.938C44.193,31.975 44.192,32.013 44.19,32.05Z" style="fill:none;fill-rule:nonzero;stroke:rgb(26,127,182);stroke-width:0.3px;"/>
        <rect x="19.11" y="6.89" width="7.33" height="2.44" style="fill:none;stroke:url(#_Linear1);stroke-width:0.3px;"/>
        <rect x="16.67" y="11.78" width="9.78" height="2.44" style="fill:none;stroke:url(#_Linear2);stroke-width:0.3px;"/>
        <rect x="6.89" y="16.67" width="19.56" height="2.44" style="fill:none;stroke:url(#_Linear3);stroke-width:0.3px;"/>
        <rect x="6.89" y="21.56" width="19.56" height="2.44" style="fill:none;stroke:url(#_Linear4);stroke-width:0.3px;"/>
        <rect x="6.89" y="31.33" width="14.67" height="2.44" style="fill:none;stroke:url(#_Linear5);stroke-width:0.3px;"/>
        <rect x="6.89" y="36.14" width="7.33" height="2.44" style="fill:none;stroke:url(#_Linear6);stroke-width:0.3px;"/>
        <path d="M42.77,16L45.71,11.57C46.202,10.842 46.048,9.846 45.36,9.3L42.69,7.23C42.335,6.957 41.883,6.841 41.44,6.91C40.987,6.981 40.586,7.244 40.34,7.63L37.89,11.31L31.33,21.17L31.33,4C31.33,2.921 30.458,2.027 29.38,2L13.32,2C12.778,1.998 12.259,2.223 11.89,2.62L11.53,3C11.449,3.058 11.372,3.121 11.3,3.19L2.5,12.53C2.167,12.907 1.988,13.397 2,13.9L2,44C2,45.097 2.903,46 4,46L29.38,46C30.458,45.973 31.33,45.079 31.33,44L31.33,33.22L42.77,16ZM11.77,6.28L11.77,11.76L6.63,11.76L11.77,6.28ZM28.89,43.56L4.44,43.56L4.44,14.22L12.27,14.22C13.367,14.22 14.27,13.317 14.27,12.22L14.27,4.44L28.89,4.44L28.89,24.85L26.44,28.52L26.44,26.44L6.89,26.44L6.89,28.89L26.2,28.89L24.32,31.71C24.226,31.865 24.159,32.033 24.12,32.21C23.942,32.375 23.808,32.581 23.73,32.81L21.64,39C21.585,39.166 21.557,39.34 21.557,39.515C21.557,40.409 22.292,41.145 23.187,41.145C23.577,41.145 23.954,41.005 24.25,40.75L28.89,36.75L28.89,43.56ZM28.34,33.31L26.93,32.21L38.46,14.86L39.87,16L28.34,33.31ZM40.78,11.37L41.89,9.71L43.3,10.81L42.19,12.47L40.78,11.37Z" style="fill:none;fill-rule:nonzero;stroke:rgb(26,127,182);stroke-width:0.3px;"/>
    </g>
    <defs>
        <linearGradient id="_Linear1" x1="0" y1="0" x2="1" y2="0" gradientUnits="userSpaceOnUse" gradientTransform="matrix(53.7289,0,0,53.7289,159.186,26.6784)"><stop offset="0" style="stop-color:rgb(26,127,182);stop-opacity:1"/><stop offset="1" style="stop-color:rgb(12,61,95);stop-opacity:1"/></linearGradient>
        <linearGradient id="_Linear2" x1="0" y1="0" x2="1" y2="0" gradientUnits="userSpaceOnUse" gradientTransform="matrix(53.7289,0,0,53.7289,159.186,26.6784)"><stop offset="0" style="stop-color:rgb(26,127,182);stop-opacity:1"/><stop offset="1" style="stop-color:rgb(12,61,95);stop-opacity:1"/></linearGradient>
        <linearGradient id="_Linear3" x1="0" y1="0" x2="1" y2="0" gradientUnits="userSpaceOnUse" gradientTransform="matrix(53.7289,0,0,53.7289,159.186,26.6784)"><stop offset="0" style="stop-color:rgb(26,127,182);stop-opacity:1"/><stop offset="1" style="stop-color:rgb(12,61,95);stop-opacity:1"/></linearGradient>
        <linearGradient id="_Linear4" x1="0" y1="0" x2="1" y2="0" gradientUnits="userSpaceOnUse" gradientTransform="matrix(53.7289,0,0,53.7289,159.186,26.6784)"><stop offset="0" style="stop-color:rgb(26,127,182);stop-opacity:1"/><stop offset="1" style="stop-color:rgb(12,61,95);stop-opacity:1"/></linearGradient>
        <linearGradient id="_Linear5" x1="0" y1="0" x2="1" y2="0" gradientUnits="userSpaceOnUse" gradientTransform="matrix(53.7289,0,0,53.7289,159.186,26.6784)"><stop offset="0" style="stop-color:rgb(26,127,182);stop-opacity:1"/><stop offset="1" style="stop-color:rgb(12,61,95);stop-opacity:1"/></linearGradient>
        <linearGradient id="_Linear6" x1="0" y1="0" x2="1" y2="0" gradientUnits="userSpaceOnUse" gradientTransform="matrix(53.7289,0,0,53.7289,159.186,26.6784)"><stop offset="0" style="stop-color:rgb(26,127,182);stop-opacity:1"/><stop offset="1" style="stop-color:rgb(12,61,95);stop-opacity:1"/></linearGradient>
    </defs>
</svg>
