<?xml version="1.0" encoding="UTF-8" standalone="no"?>
<!DOCTYPE svg PUBLIC "-//W3C//DTD SVG 1.1//EN" "http://www.w3.org/Graphics/SVG/1.1/DTD/svg11.dtd">
<svg width="100%" height="100%" viewBox="0 0 44 44" version="1.1" xmlns="http://www.w3.org/2000/svg" xmlns:xlink="http://www.w3.org/1999/xlink" xml:space="preserve" xmlns:serif="http://www.serif.com/" style="fill-rule:evenodd;clip-rule:evenodd;stroke-linejoin:round;stroke-miterlimit:2;">
    <g id="Capa_4">
        <path d="M40.91,2L30.91,2L30.91,4.24L37.79,4.24C37.792,4.24 37.794,4.24 37.796,4.24C37.894,4.24 37.976,4.321 37.976,4.42C37.976,4.469 37.955,4.516 37.92,4.55L11.66,30.77C11.591,30.832 11.503,30.867 11.41,30.87L9.41,30.87C9.311,30.87 9.23,30.789 9.23,30.69L9.23,13.31C9.23,13.211 9.311,13.13 9.41,13.13L13.12,13.13L13.12,2L3.12,2C3.11,2 3.1,2 3.09,2C2.492,2 2,2.492 2,3.09C2,3.09 2,13.09 2,13.09L6.26,13.09C6.359,13.09 6.44,13.171 6.44,13.27L6.44,30.69C6.44,30.789 6.359,30.87 6.26,30.87L2,30.87L2,40.87C2,40.883 1.999,40.897 1.999,40.91C1.999,41.508 2.491,42 3.089,42C3.09,42 3.09,42 3.09,42L13.09,42L13.09,38.29C13.09,38.191 13.171,38.11 13.27,38.11L30.69,38.11C30.789,38.11 30.87,38.191 30.87,38.29L30.87,42L40.87,42C40.883,42 40.897,42.001 40.91,42.001C41.508,42.001 42,41.509 42,40.911C42,40.91 42,40.91 42,40.91L42,30.91L30.87,30.91L30.87,35.17C30.87,35.269 30.789,35.35 30.69,35.35L13.31,35.35C13.211,35.35 13.13,35.269 13.13,35.17L13.13,32.59C13.133,32.497 13.168,32.409 13.23,32.34L39.45,6.12C39.484,6.085 39.531,6.064 39.58,6.064C39.679,6.064 39.76,6.146 39.76,6.244C39.76,6.246 39.76,6.248 39.76,6.25L39.76,13.13L42,13.13L42,3.13C42,3.117 42.001,3.103 42.001,3.09C42.001,2.492 41.509,2 40.911,2C40.91,2 40.91,2 40.91,2ZM4.36,7.42C4.36,5.676 5.796,4.24 7.54,4.24C9.284,4.24 10.72,5.676 10.72,7.42C10.72,9.164 9.284,10.6 7.54,10.6C7.537,10.6 7.533,10.6 7.53,10.6C5.791,10.6 4.36,9.169 4.36,7.43C4.36,7.427 4.36,7.423 4.36,7.42ZM7.54,39.65C5.796,39.65 4.36,38.214 4.36,36.47C4.36,34.726 5.796,33.29 7.54,33.29C9.284,33.29 10.72,34.726 10.72,36.47C10.72,38.214 9.284,39.65 7.54,39.65ZM36.43,33.29C38.174,33.29 39.61,34.726 39.61,36.47C39.61,38.214 38.174,39.65 36.43,39.65C34.686,39.65 33.25,38.214 33.25,36.47C33.25,34.726 34.686,33.29 36.43,33.29Z" style="fill:none;fill-rule:nonzero;stroke:rgb(24,124,166);stroke-width:0.3px;"/>
    </g>
</svg>
