<?xml version="1.0" encoding="UTF-8" standalone="no"?>
<!DOCTYPE svg PUBLIC "-//W3C//DTD SVG 1.1//EN" "http://www.w3.org/Graphics/SVG/1.1/DTD/svg11.dtd">
<svg width="100%" height="100%" viewBox="0 0 48 48" version="1.1" xmlns="http://www.w3.org/2000/svg" xmlns:xlink="http://www.w3.org/1999/xlink" xml:space="preserve" xmlns:serif="http://www.serif.com/" style="fill-rule:evenodd;clip-rule:evenodd;stroke-linejoin:round;stroke-miterlimit:2;">
    <g id="Capa_4">
        <path d="M10.56,15.6C12.508,15.562 14.09,13.949 14.09,12.001C14.09,10.026 12.465,8.401 10.49,8.401C8.515,8.401 6.89,10.025 6.89,12C6.906,13.98 8.54,15.6 10.52,15.6C10.533,15.6 10.547,15.6 10.56,15.6ZM10.56,10C11.657,10 12.56,10.903 12.56,12C12.56,13.097 11.657,14 10.56,14C9.463,14 8.56,13.097 8.56,12C8.56,10.903 9.463,10 10.56,10Z" style="fill:none;fill-rule:nonzero;stroke:rgb(24,124,166);stroke-width:0.3px;"/>
        <path d="M21.56,15.6C24.159,15.551 26.27,13.4 26.27,10.801C26.27,8.168 24.103,6.001 21.47,6.001C18.837,6.001 16.67,8.167 16.67,10.8C16.692,13.44 18.87,15.6 21.51,15.6C21.527,15.6 21.543,15.6 21.56,15.6ZM21.56,8.1C23.022,8.127 24.21,9.337 24.21,10.8C24.21,12.281 22.991,13.5 21.51,13.5C20.029,13.5 18.81,12.281 18.81,10.8C18.826,9.306 20.066,8.089 21.56,8.1Z" style="fill:none;fill-rule:nonzero;stroke:rgb(24,124,166);stroke-width:0.3px;"/>
        <path d="M29.08,18L4.26,18C4.253,18 4.247,18 4.24,18C3.019,18 2.011,18.999 2,20.22L2,39.78C2.011,41.001 3.019,42 4.24,42C4.247,42 4.253,42 4.26,42L29.08,42C29.087,42 29.093,42 29.1,42C30.32,42 31.325,41 31.33,39.78L31.33,20.22C31.325,19 30.32,18 29.1,18C29.093,18 29.087,18 29.08,18ZM28.89,39.6L4.44,39.6L4.44,20.4L28.89,20.4L28.89,39.6Z" style="fill:none;fill-rule:nonzero;stroke:rgb(24,124,166);stroke-width:0.3px;"/>
        <path d="M43.74,18L39.85,18C38.751,17.962 37.716,18.532 37.16,19.48L34,25.65C33.839,25.959 33.757,26.302 33.76,26.65L33.76,35.1C33.761,35.539 33.894,35.967 34.14,36.33L37.14,40.77C37.743,41.58 38.711,42.041 39.72,42L43.72,42C43.781,42.005 43.841,42.008 43.902,42.008C45.019,42.008 45.951,41.116 46,40L46,20C45.95,18.884 45.019,17.994 43.902,17.994C43.848,17.994 43.794,17.996 43.74,18ZM43.56,39.6L39.72,39.6C39.536,39.613 39.354,39.556 39.21,39.44L36.21,35.04L36.21,26.68L39.33,20.56C39.474,20.444 39.656,20.387 39.84,20.4L43.55,20.4L43.56,39.6Z" style="fill:none;fill-rule:nonzero;stroke:rgb(24,124,166);stroke-width:0.3px;"/>
        <path d="M10,37C10.433,37.266 10.973,37.292 11.43,37.07L23.16,31.31C23.656,31.073 23.973,30.57 23.973,30.02C23.973,29.47 23.656,28.967 23.16,28.73L11.46,23C11.007,22.746 10.453,22.746 10,23C9.563,23.254 9.296,23.725 9.3,24.23L9.3,35.73C9.281,36.249 9.551,36.739 10,37ZM12.46,26.16L19.46,29.59C19.623,29.671 19.727,29.838 19.727,30.02C19.727,30.202 19.623,30.369 19.46,30.45L12.46,33.88C12.392,33.914 12.316,33.932 12.24,33.932C11.974,33.932 11.754,33.716 11.75,33.45L11.75,26.57C11.75,26.567 11.75,26.564 11.75,26.561C11.75,26.293 11.971,26.071 12.24,26.071C12.328,26.071 12.414,26.095 12.49,26.14L12.46,26.16Z" style="fill:none;fill-rule:nonzero;stroke:rgb(24,124,166);stroke-width:0.3px;"/>
    </g>
</svg>
