<?xml version="1.0" encoding="UTF-8" standalone="no"?>
<!DOCTYPE svg PUBLIC "-//W3C//DTD SVG 1.1//EN" "http://www.w3.org/Graphics/SVG/1.1/DTD/svg11.dtd">
<svg width="100%" height="100%" viewBox="0 0 48 48" version="1.1" xmlns="http://www.w3.org/2000/svg" xmlns:xlink="http://www.w3.org/1999/xlink" xml:space="preserve" xmlns:serif="http://www.serif.com/" style="fill-rule:evenodd;clip-rule:evenodd;stroke-linejoin:round;stroke-miterlimit:2;">
    <g id="Capa_4">
        <path d="M43.56,34C43.344,34.001 43.129,34.028 42.92,34.08L36.14,27.15C36.192,26.937 36.219,26.719 36.22,26.5C36.22,25.161 35.119,24.06 33.78,24.06C32.441,24.06 31.34,25.161 31.34,26.5C31.339,26.736 31.369,26.972 31.43,27.2L24.56,36.57C24.151,36.458 23.719,36.458 23.31,36.57L16.66,31.71L16.66,31.47C16.663,31.418 16.665,31.366 16.665,31.314C16.665,29.97 15.559,28.864 14.215,28.864C12.871,28.864 11.765,29.97 11.765,31.314C11.765,31.366 11.767,31.418 11.77,31.47C11.771,31.689 11.798,31.907 11.85,32.12L5.07,39.09C4.866,39.029 4.653,38.999 4.44,39C3.069,39 1.94,40.129 1.94,41.5C1.94,42.871 3.069,44 4.44,44C5.797,43.984 6.901,42.857 6.89,41.5C6.89,41.28 6.86,41.061 6.8,40.85L13.59,33.92C13.796,33.972 14.008,33.999 14.22,34C14.565,33.999 14.906,33.924 15.22,33.78L21.61,38.44C21.57,38.624 21.55,38.812 21.55,39C21.547,39.052 21.545,39.104 21.545,39.156C21.545,40.5 22.651,41.606 23.995,41.606C25.339,41.606 26.445,40.5 26.445,39.156C26.445,39.104 26.443,39.052 26.44,39C26.438,38.763 26.404,38.528 26.34,38.3L33.21,28.93C33.394,28.974 33.581,28.997 33.77,29C33.983,29.001 34.196,28.971 34.4,28.91L41.19,35.85C41.13,36.061 41.1,36.28 41.1,36.5C41.127,37.825 42.224,38.9 43.549,38.9C44.894,38.9 45.999,37.794 45.999,36.45C45.999,35.11 44.9,34.006 43.56,34ZM4.44,42.75C4.433,42.75 4.427,42.75 4.42,42.75C3.734,42.75 3.17,42.186 3.17,41.5C3.17,40.814 3.734,40.25 4.42,40.25C5.106,40.25 5.67,40.814 5.67,41.5C5.67,41.503 5.67,41.507 5.67,41.51C5.67,42.187 5.116,42.745 4.44,42.75ZM24,40.25C23.99,40.25 23.98,40.25 23.97,40.25C23.284,40.25 22.72,39.686 22.72,39C22.72,38.315 23.284,37.75 23.97,37.75C24.656,37.75 25.22,38.314 25.22,39C25.226,39.677 24.676,40.239 24,40.25ZM33.78,27.75C33.77,27.75 33.76,27.75 33.75,27.75C33.064,27.75 32.5,27.186 32.5,26.5C32.5,25.815 33.064,25.25 33.75,25.25C34.436,25.25 35,25.814 35,26.5C35.006,27.177 34.456,27.739 33.78,27.75Z" style="fill:none;fill-rule:nonzero;stroke:rgb(24,124,166);stroke-width:0.3px;"/>
        <path d="M24,22.31C31.228,22.312 38.155,19.376 43.18,14.18C43.422,13.931 43.559,13.597 43.56,13.25L43.56,13.06C43.559,12.713 43.422,12.379 43.18,12.13C38.154,6.936 31.228,4 24,4C16.772,4 9.846,6.936 4.82,12.13C4.578,12.379 4.441,12.713 4.44,13.06L4.44,13.25C4.441,13.597 4.578,13.931 4.82,14.18C9.845,19.376 16.772,22.312 24,22.31ZM40.49,13.16C36.932,16.49 32.448,18.666 27.63,19.4C29.793,18.064 31.113,15.697 31.113,13.155C31.113,10.613 29.793,8.246 27.63,6.91C32.45,7.643 36.935,9.823 40.49,13.16ZM24,8.53C24.037,8.529 24.073,8.529 24.11,8.529C26.65,8.529 28.74,10.619 28.74,13.159C28.74,15.699 26.65,17.789 24.11,17.789C21.571,17.789 19.481,15.699 19.48,13.16C19.452,10.651 21.491,8.563 24,8.53ZM20.37,6.91C18.212,8.249 16.896,10.615 16.896,13.155C16.896,15.695 18.212,18.061 20.37,19.4C15.553,18.664 11.069,16.489 7.51,13.16C11.066,9.825 15.551,7.646 20.37,6.91Z" style="fill:none;fill-rule:nonzero;stroke:rgb(24,124,166);stroke-width:0.3px;"/>
        <path d="M23.94,15.9C25.399,15.884 26.59,14.679 26.59,13.22C26.59,13.21 26.59,13.2 26.59,13.19C26.591,12.912 26.551,12.636 26.47,12.37C26.276,12.494 26.05,12.56 25.82,12.56C25.144,12.549 24.594,11.987 24.6,11.31C24.599,11.066 24.668,10.826 24.8,10.62C24.523,10.527 24.232,10.48 23.94,10.48C22.453,10.48 21.23,11.703 21.23,13.19C21.23,14.677 22.453,15.9 23.94,15.9Z" style="fill:none;fill-rule:nonzero;stroke:rgb(24,124,166);stroke-width:0.3px;"/>
    </g>
</svg>
