<?xml version="1.0" encoding="UTF-8" standalone="no"?>
<!DOCTYPE svg PUBLIC "-//W3C//DTD SVG 1.1//EN" "http://www.w3.org/Graphics/SVG/1.1/DTD/svg11.dtd">
<svg width="100%" height="100%" viewBox="0 0 48 48" version="1.1" xmlns="http://www.w3.org/2000/svg" xmlns:xlink="http://www.w3.org/1999/xlink" xml:space="preserve" xmlns:serif="http://www.serif.com/" style="fill-rule:evenodd;clip-rule:evenodd;stroke-linejoin:round;stroke-miterlimit:2;">
    <g id="Capa_4">
        <path d="M20.67,25.08C20.929,24.609 20.909,24.033 20.62,23.58L13.62,12.5C13.318,12.058 13.154,11.535 13.15,11L13.15,4.3C13.145,3.08 12.14,2.08 10.92,2.08C10.913,2.08 10.907,2.08 10.9,2.08L2,2.08L2,4.52L10.71,4.52L10.71,11C10.71,11.982 10.991,12.943 11.52,13.77L17.62,23.37L13.56,23.37C13.553,23.37 13.547,23.37 13.54,23.37C11.995,23.37 10.721,24.635 10.71,26.18L10.71,31C10.713,31.178 10.64,31.349 10.51,31.47L8.85,33C8.563,33.286 8.401,33.675 8.4,34.08C8.398,34.486 8.56,34.876 8.85,35.16L10.55,36.81C10.651,36.911 10.708,37.047 10.71,37.19L10.71,43.53L2,43.53L2,46L10.9,46C12.125,46.006 13.139,45.005 13.15,43.78L13.15,37.22C13.144,36.417 12.816,35.649 12.24,35.09L11.24,34.09L12.24,33.15C12.861,32.577 13.222,31.775 13.24,30.93L13.24,26.22C13.25,26.014 13.423,25.849 13.63,25.849C13.636,25.849 13.643,25.85 13.65,25.85L19.46,25.85C19.969,25.821 20.428,25.529 20.67,25.08Z" style="fill:none;fill-rule:nonzero;stroke:rgb(26,127,182);stroke-width:0.3px;"/>
        <path d="M37.29,11L37.29,4.44L46,4.44L46,2L37.1,2C35.875,1.994 34.861,2.995 34.85,4.22L34.85,11C34.852,11.517 34.706,12.023 34.43,12.46L27.43,23.54C27.136,23.972 27.098,24.532 27.33,25C27.588,25.476 28.089,25.773 28.63,25.77L34.44,25.77C34.447,25.77 34.454,25.769 34.46,25.769C34.667,25.769 34.84,25.934 34.85,26.14L34.85,30.88C34.855,31.717 35.197,32.518 35.8,33.1L36.8,34.04L35.8,35.04C35.224,35.599 34.896,36.367 34.89,37.17L34.89,43.7C34.895,44.92 35.9,45.92 37.12,45.92C37.127,45.92 37.133,45.92 37.14,45.92L46,45.92L46,43.48L37.29,43.48L37.29,37.14C37.294,36.998 37.351,36.862 37.45,36.76L39.15,35.11C39.438,34.826 39.6,34.439 39.6,34.035C39.6,33.631 39.438,33.244 39.15,32.96L37.49,31.35C37.364,31.226 37.292,31.057 37.29,30.88L37.29,26.14C37.279,24.595 36.005,23.33 34.46,23.33C34.453,23.33 34.447,23.33 34.44,23.33L30.38,23.33L36.48,13.74C37.003,12.922 37.284,11.971 37.29,11Z" style="fill:none;fill-rule:nonzero;stroke:rgb(26,127,182);stroke-width:0.3px;"/>
        <path d="M31.42,31.28C30.615,31.344 29.835,31.59 29.14,32L28.14,32.62C27.77,32.85 27.41,33.07 27.05,33.32C26.33,33.83 25.65,34.4 24.97,34.97L22.8,36.8L20.6,38.7C20.43,38.36 20.25,38.03 20.05,37.7C19.835,37.32 19.473,37.045 19.05,36.94C18.629,36.84 18.191,36.84 17.77,36.94C17.552,37.002 17.338,37.079 17.13,37.17C16.94,37.27 16.69,37.39 16.77,37.64C16.85,37.89 16.98,37.83 17.11,37.88L17.4,37.99L17.47,37.99L17.56,38.04C17.697,38.122 17.816,38.231 17.91,38.36C18.115,38.653 18.286,38.968 18.42,39.3C18.75,40.02 19.05,40.76 19.33,41.5C19.47,41.88 19.61,42.26 19.74,42.64C19.8,42.82 19.85,43 19.92,43.18C19.98,43.349 20.152,43.454 20.33,43.43C20.51,43.43 20.62,43.24 20.73,43.1C20.83,42.952 20.92,42.799 21,42.64C21.19,42.31 21.39,41.99 21.59,41.64C22.421,40.389 23.336,39.196 24.33,38.07C24.83,37.5 25.33,36.94 25.85,36.38C26.37,35.82 26.92,35.23 27.5,34.71C28.08,34.19 28.63,33.71 29.21,33.24C29.783,32.793 30.381,32.379 31,32L31.49,31.71C31.582,31.681 31.645,31.596 31.645,31.5C31.645,31.379 31.545,31.28 31.425,31.28C31.423,31.28 31.422,31.28 31.42,31.28Z" style="fill:none;fill-rule:nonzero;stroke:rgb(26,127,182);stroke-width:0.3px;"/>
    </g>
</svg>
