<?xml version="1.0" encoding="UTF-8" standalone="no"?>
<!DOCTYPE svg PUBLIC "-//W3C//DTD SVG 1.1//EN" "http://www.w3.org/Graphics/SVG/1.1/DTD/svg11.dtd">
<svg width="100%" height="100%" viewBox="0 0 620 81" version="1.1" xmlns="http://www.w3.org/2000/svg" xmlns:xlink="http://www.w3.org/1999/xlink" xml:space="preserve" xmlns:serif="http://www.serif.com/" style="fill-rule:evenodd;clip-rule:evenodd;stroke-linejoin:round;stroke-miterlimit:2;">
    <g transform="matrix(1,0,0,1,-1435.53,-11.425)">
        <g id="color" transform="matrix(0.484356,0,0,0.100051,1435.53,11.425)">
            <rect x="0" y="0" width="1280" height="800" style="fill:none;"/>
            <clipPath id="_clip1">
                <rect x="0" y="0" width="1280" height="800"/>
            </clipPath>
            <g clip-path="url(#_clip1)">
                <g transform="matrix(2.13395,0,0,10.3307,-228.812,-6716.61)">
                    <g transform="matrix(-0.19274,-2.32054e-17,4.80502e-17,-0.385736,195.081,837.156)">
                        <path d="M256.035,318.717L256.035,284.013L448.325,284.013C452.623,284.013 456.108,285.754 456.108,287.902L456.108,480.197C456.108,482.345 452.623,484.086 448.325,484.086L256.035,484.086L256.035,453.05C256.035,461.583 277.062,465.833 289.285,459.775L424.811,392.608C432.326,388.883 432.326,382.883 424.811,379.158L289.285,311.992C277.062,305.933 256.035,310.188 256.035,318.717Z" style="fill:rgb(30,141,193);"/>
                    </g>
                    <g transform="matrix(-0.19274,-2.32054e-17,4.80502e-17,-0.385736,233.919,836.932)">
                        <rect x="256.035" y="284.013" width="200.073" height="200.073" style="fill:none;"/>
                    </g>
                    <g transform="matrix(1.63483,1.96829e-16,2.00209e-16,-1.60723,178.659,690.901)">
                        <path d="M-19.898,-6.939L-19.898,-14.506C-19.898,-16.553 -17.419,-17.574 -15.978,-16.12L0,0C0.886,0.894 0.886,2.334 0,3.228L-15.978,19.348C-17.419,20.802 -19.898,19.782 -19.898,17.734L-19.898,10.167C-19.574,10.84 -18.609,11.079 -18.002,10.481L-9.827,2.421C-9.374,1.974 -9.374,1.254 -9.827,0.807L-18.002,-7.253C-18.609,-7.851 -19.574,-7.612 -19.898,-6.939Z" style="fill:rgb(220,96,20);"/>
                    </g>
                    <g transform="matrix(-1.63483,-1.96829e-16,2.00209e-16,-1.60723,113.203,690.901)">
                        <path d="M-19.898,17.734L-19.898,-14.506C-19.898,-16.553 -17.419,-17.574 -15.978,-16.12L0,0C0.886,0.894 0.886,2.334 0,3.228L-15.978,19.348C-17.419,20.802 -19.898,19.782 -19.898,17.734Z" style="fill:none;"/>
                    </g>
                    <g transform="matrix(-0.817589,-9.84356e-17,1.00105e-16,-0.803617,129.649,689.604)">
                        <path d="M0,3.228L-15.978,19.348C-17.419,20.802 -19.898,19.782 -19.898,17.734L-19.898,-14.506C-19.898,-16.553 -17.419,-17.574 -15.978,-16.12L0,0C0.886,0.894 0.886,2.334 0,3.228" style="fill:rgb(30,141,193);fill-rule:nonzero;"/>
                    </g>
                    <g transform="matrix(0.836474,1.00748e-16,1.00144e-16,-0.803617,162.381,689.604)">
                        <path d="M-19.683,18.72L-19.683,-15.492C-19.05,-16.838 -17.163,-17.316 -15.978,-16.12L0,0C0.886,0.894 0.886,2.334 0,3.228L-15.978,19.348C-17.163,20.544 -19.05,20.066 -19.683,18.72Z" style="fill:none;"/>
                    </g>
                </g>
                <g transform="matrix(1.65059,0,0,7.94171,41.9805,-6127.7)">
                    <g transform="matrix(1,0,0,1,180.515,799.111)">
                        <path d="M0,65.403C-5.937,61.078 -8.906,55.314 -8.906,48.09L-8.761,46.385L10.193,46.385L10.193,47.382C10.286,50.711 11.782,53.099 14.681,54.572C17.574,56.045 21.117,56.787 25.297,56.787C29.188,56.787 32.516,56.265 35.27,55.222C38.024,54.166 39.404,52.462 39.404,50.084C39.404,47.429 38.001,45.434 35.2,44.101C32.394,42.767 28.005,41.445 22.015,40.112C15.84,38.685 10.808,37.236 6.911,35.763C3.015,34.29 -0.354,31.994 -3.201,28.852C-6.053,25.721 -7.48,21.546 -7.48,16.316C-7.48,8.999 -4.412,3.375 1.71,-0.568C7.839,-4.511 15.748,-6.482 25.436,-6.482C34.464,-6.482 41.92,-4.65 47.811,-0.997C53.696,2.656 56.642,7.619 56.642,13.893L56.503,17.174L37.549,17.174L37.549,16.316C37.549,13.846 36.383,11.944 34.058,10.611C31.727,9.289 28.62,8.616 24.723,8.616C20.827,8.616 17.742,9.138 15.464,10.193C13.185,11.237 12.043,12.71 12.043,14.6C12.043,16.977 13.347,18.74 15.962,19.876C18.571,21.013 22.775,22.161 28.573,23.297C34.934,24.723 40.117,26.15 44.106,27.576C48.095,29.002 51.563,31.322 54.508,34.557C57.448,37.781 58.926,42.153 58.926,47.661C58.926,63.814 47.475,71.885 24.584,71.885C14.13,71.885 5.937,69.728 0,65.403" style="fill:rgb(30,141,193);fill-rule:nonzero;"/>
                    </g>
                    <g transform="matrix(1,0,0,1,172.068,817.788)">
                        <path d="M0,28.05L-0.118,29.443C-0.117,36.482 2.832,42.214 8.649,46.45C14.494,50.709 22.697,52.867 33.032,52.867C55.593,52.867 67.033,44.832 67.033,28.985C67.033,23.593 65.576,19.262 62.703,16.11C59.821,12.944 56.368,10.626 52.439,9.221C48.495,7.811 43.283,6.375 36.946,4.953C31.194,3.826 26.927,2.668 24.273,1.512C21.537,0.323 20.149,-1.556 20.149,-4.077C20.149,-6.106 21.367,-7.693 23.769,-8.794C26.072,-9.86 29.236,-10.402 33.171,-10.402C37.091,-10.402 40.289,-9.716 42.674,-8.362C45.105,-6.969 46.337,-4.949 46.337,-2.36L46.337,-1.844L64.623,-1.844L64.749,-4.799C64.748,-10.901 61.831,-15.812 56.079,-19.384C50.263,-22.989 42.795,-24.817 33.884,-24.817C24.308,-24.817 16.387,-22.846 10.343,-18.958C4.349,-15.097 1.309,-9.513 1.309,-2.36C1.309,2.753 2.719,6.894 5.5,9.946C8.287,13.023 11.645,15.318 15.479,16.767C19.351,18.23 24.418,19.689 30.54,21.102C36.627,22.458 40.963,23.771 43.794,25.115C46.713,26.506 48.193,28.623 48.193,31.407C48.193,33.921 46.728,35.757 43.839,36.863C41.059,37.918 37.663,38.452 33.745,38.452C29.533,38.452 25.909,37.695 22.974,36.199C19.968,34.673 18.396,32.155 18.299,28.716L18.299,28.05L0,28.05ZM33.032,53.551C22.55,53.551 14.211,51.348 8.247,47.003C2.244,42.63 -0.8,36.712 -0.8,29.413L-0.627,27.366L18.982,27.366L18.982,28.706C19.071,31.911 20.479,34.166 23.283,35.591C26.122,37.036 29.642,37.769 33.745,37.769C37.581,37.769 40.895,37.25 43.596,36.226C46.229,35.217 47.51,33.641 47.51,31.407C47.51,28.873 46.199,27.018 43.501,25.733C40.756,24.428 36.344,23.094 30.389,21.768C24.235,20.347 19.138,18.879 15.238,17.405C11.301,15.917 7.854,13.562 4.994,10.404C2.096,7.224 0.626,2.929 0.626,-2.36C0.626,-9.761 3.771,-15.538 9.973,-19.532C16.13,-23.492 24.174,-25.501 33.884,-25.501C42.924,-25.501 50.513,-23.638 56.438,-19.964C62.405,-16.26 65.431,-11.153 65.431,-4.784L65.277,-1.16L45.655,-1.16L45.655,-2.36C45.655,-4.72 44.569,-6.489 42.336,-7.769C40.056,-9.062 36.972,-9.719 33.171,-9.719C29.335,-9.719 26.269,-9.199 24.055,-8.174C21.885,-7.179 20.832,-5.84 20.832,-4.077C20.832,-1.823 22.046,-0.199 24.545,0.886C27.154,2.023 31.374,3.166 37.086,4.285C43.459,5.715 48.699,7.158 52.668,8.578C56.704,10.022 60.25,12.401 63.208,15.651C66.199,18.931 67.715,23.417 67.715,28.985C67.715,45.285 56.046,53.551 33.032,53.551" style="fill:rgb(30,141,193);fill-rule:nonzero;"/>
                    </g>
                    <g transform="matrix(1,0,0,1,172.498,817.315)">
                        <path d="M0,28.995L-0.076,29.956C-0.076,36.89 2.725,42.34 8.494,46.542C14.256,50.738 22.367,52.865 32.599,52.865C55.157,52.865 66.128,45.212 66.128,29.46C66.128,24.188 64.714,19.96 61.919,16.898C59.098,13.797 55.711,11.518 51.853,10.142C47.918,8.735 42.723,7.303 36.413,5.889C30.663,4.762 26.359,3.597 23.653,2.419C20.731,1.146 19.247,-0.879 19.247,-3.604C19.247,-5.832 20.559,-7.564 23.144,-8.749C25.538,-9.863 28.683,-10.404 32.739,-10.404C36.744,-10.404 40.017,-9.697 42.474,-8.296C45.072,-6.819 46.384,-4.661 46.384,-1.885L46.384,-1.847L63.74,-1.847L63.842,-4.343C63.842,-10.34 61.079,-14.982 55.399,-18.509C49.656,-22.068 42.27,-23.87 33.452,-23.87C23.972,-23.87 16.134,-21.922 10.168,-18.083C4.24,-14.269 1.356,-8.971 1.356,-1.885C1.356,3.107 2.725,7.137 5.425,10.098C8.162,13.122 11.454,15.376 15.217,16.796C19.082,18.254 24.131,19.712 30.218,21.113C36.317,22.469 40.685,23.793 43.569,25.156C46.664,26.639 48.236,28.899 48.236,31.879C48.236,34.604 46.67,36.591 43.582,37.775C40.742,38.851 37.285,39.399 33.312,39.399C29.027,39.399 25.334,38.622 22.329,37.094C19.158,35.483 17.497,32.828 17.395,29.205L17.395,28.995L0,28.995ZM32.599,54.495C22.011,54.495 13.581,52.26 7.539,47.854C1.401,43.391 -1.706,37.342 -1.706,29.886L-1.49,27.365L19.025,27.365L19.025,29.18C19.114,32.185 20.432,34.305 23.068,35.642C25.844,37.056 29.288,37.769 33.312,37.769C37.088,37.769 40.348,37.259 43.003,36.253C45.428,35.324 46.606,33.891 46.606,31.879C46.606,29.549 45.384,27.83 42.869,26.633C40.138,25.334 35.763,24.016 29.855,22.704C23.692,21.278 18.579,19.807 14.644,18.324C10.639,16.809 7.131,14.408 4.215,11.193C1.235,7.927 -0.274,3.527 -0.274,-1.885C-0.274,-9.462 2.942,-15.37 9.289,-19.458C15.523,-23.469 23.653,-25.5 33.452,-25.5C42.582,-25.5 50.255,-23.615 56.252,-19.897C62.371,-16.102 65.472,-10.856 65.472,-4.311L65.306,-0.217L44.754,-0.217L44.754,-1.885C44.754,-4.062 43.748,-5.699 41.672,-6.883C39.463,-8.137 36.457,-8.774 32.739,-8.774C28.976,-8.774 25.977,-8.271 23.825,-7.271C21.839,-6.361 20.877,-5.164 20.877,-3.604C20.877,-1.56 21.998,-0.077 24.303,0.929C26.901,2.056 31.09,3.19 36.75,4.291C43.143,5.73 48.402,7.175 52.4,8.602C56.513,10.079 60.124,12.498 63.129,15.803C66.198,19.171 67.758,23.768 67.758,29.46C67.758,46.071 55.928,54.495 32.599,54.495" style="fill:rgb(30,141,193);fill-rule:nonzero;"/>
                    </g>
                    <g transform="matrix(1,0,0,1,172.813,816.972)">
                        <path d="M0,29.68L-0.051,30.326C-0.05,37.142 2.707,42.477 8.379,46.609C14.08,50.761 22.123,52.866 32.284,52.866C54.615,52.866 65.471,45.322 65.471,29.802C65.471,24.615 64.085,20.466 61.352,17.471C58.561,14.403 55.22,12.16 51.423,10.806C47.489,9.401 42.308,7.973 36.023,6.565C30.228,5.429 25.911,4.254 23.202,3.075C20.142,1.742 18.591,-0.39 18.591,-3.261C18.591,-5.635 19.969,-7.47 22.687,-8.716C25.124,-9.85 28.31,-10.403 32.424,-10.403C36.489,-10.403 39.822,-9.678 42.328,-8.251C44.942,-6.763 46.312,-4.61 46.405,-1.845L63.097,-1.845L63.186,-4.013C63.186,-9.877 60.477,-14.416 54.904,-17.877C49.219,-21.399 41.895,-23.185 33.137,-23.185C23.721,-23.185 15.949,-21.257 10.038,-17.453C4.213,-13.706 1.382,-8.502 1.382,-1.542C1.382,3.361 2.721,7.315 5.362,10.211C8.065,13.198 11.315,15.421 15.022,16.82C18.908,18.285 23.94,19.734 29.979,21.122C36.095,22.483 40.485,23.813 43.4,25.19C46.627,26.737 48.262,29.102 48.262,32.222C48.262,35.106 46.623,37.197 43.389,38.436C40.505,39.529 37.01,40.083 32.997,40.083C28.664,40.083 24.917,39.295 21.859,37.742C18.603,36.086 16.881,33.374 16.742,29.68L0,29.68ZM32.284,53.549C21.976,53.549 13.797,51.4 7.977,47.161C2.116,42.892 -0.733,37.376 -0.733,30.299L-0.631,28.996L17.421,28.996L17.421,29.548C17.519,33.027 19.116,35.581 22.168,37.132C25.129,38.637 28.772,39.4 32.997,39.4C36.927,39.4 40.341,38.862 43.146,37.798C46.087,36.671 47.58,34.794 47.58,32.222C47.58,29.387 46.075,27.229 43.106,25.806C40.24,24.452 35.896,23.138 29.828,21.788C23.757,20.392 18.696,18.935 14.781,17.458C10.972,16.021 7.633,13.737 4.856,10.67C2.099,7.645 0.7,3.536 0.7,-1.542C0.7,-8.752 3.633,-14.144 9.668,-18.027C15.692,-21.903 23.588,-23.869 33.137,-23.869C42.024,-23.869 49.469,-22.048 55.264,-18.457C61.054,-14.861 63.868,-10.132 63.868,-4L63.752,-1.162L45.727,-1.162L45.727,-1.504C45.727,-4.189 44.47,-6.247 41.99,-7.657C39.588,-9.026 36.369,-9.719 32.424,-9.719C28.411,-9.719 25.32,-9.189 22.973,-8.096C20.518,-6.971 19.273,-5.344 19.273,-3.261C19.273,-0.687 20.687,1.235 23.475,2.45C26.139,3.609 30.408,4.769 36.163,5.897C42.484,7.313 47.692,8.748 51.652,10.163C55.556,11.555 58.989,13.86 61.856,17.011C64.708,20.135 66.154,24.439 66.154,29.802C66.154,45.782 55.075,53.549 32.284,53.549M-1.492,28.049L-1.681,30.258C-1.68,37.576 1.383,43.528 7.424,47.92C13.407,52.284 21.771,54.495 32.284,54.495C55.387,54.495 67.101,46.188 67.101,29.802C67.101,24.199 65.574,19.681 62.561,16.375C59.598,13.117 56.034,10.725 51.97,9.266C48.011,7.854 42.759,6.407 36.36,4.967C30.693,3.865 26.481,2.726 23.852,1.585C21.408,0.519 20.221,-1.066 20.221,-3.261C20.221,-4.967 21.25,-6.268 23.368,-7.239C25.558,-8.257 28.605,-8.773 32.424,-8.773C36.201,-8.773 39.263,-8.122 41.525,-6.838C43.715,-5.588 44.78,-3.855 44.78,-1.542L44.78,-0.216L64.664,-0.216L64.816,-3.982C64.815,-10.39 61.768,-15.537 55.757,-19.264C49.816,-22.948 42.206,-24.815 33.137,-24.815C23.399,-24.815 15.333,-22.801 9.159,-18.828C2.917,-14.808 -0.248,-8.993 -0.248,-1.542C-0.248,3.784 1.233,8.106 4.152,11.305C7.034,14.484 10.499,16.853 14.449,18.347C18.362,19.823 23.465,21.291 29.617,22.714C35.552,24.033 39.955,25.363 42.7,26.667C45.346,27.926 46.632,29.742 46.632,32.222C46.632,34.394 45.382,35.929 42.81,36.914C40.115,37.936 36.814,38.453 32.997,38.453C28.916,38.453 25.417,37.725 22.598,36.288C19.845,34.893 18.461,32.683 18.368,29.533L18.368,28.049L-1.492,28.049ZM32.284,55.179C21.624,55.179 13.125,52.922 7.022,48.472C0.795,43.945 -2.363,37.806 -2.363,30.229L-2.119,27.366L19.051,27.366L19.051,29.523C19.136,32.39 20.397,34.408 22.907,35.68C25.629,37.068 29.024,37.77 32.997,37.77C36.731,37.77 39.951,37.268 42.566,36.277C44.843,35.405 45.95,34.078 45.95,32.222C45.95,30.034 44.791,28.418 42.407,27.284C39.708,26.001 35.354,24.688 29.466,23.38C23.282,21.95 18.15,20.472 14.208,18.986C10.155,17.452 6.602,15.023 3.647,11.765C0.61,8.437 -0.93,3.959 -0.93,-1.542C-0.93,-9.24 2.34,-15.249 8.79,-19.402C15.075,-23.447 23.267,-25.499 33.137,-25.499C42.335,-25.499 50.066,-23.596 56.117,-19.844C62.342,-15.984 65.498,-10.642 65.498,-3.968L65.319,0.468L44.097,0.468L44.097,-1.542C44.097,-3.589 43.146,-5.127 41.188,-6.244C39.03,-7.468 36.081,-8.09 32.424,-8.09C28.705,-8.09 25.755,-7.595 23.654,-6.619C21.803,-5.77 20.903,-4.673 20.903,-3.261C20.903,-1.367 21.957,0.013 24.125,0.959C26.708,2.079 30.872,3.203 36.5,4.299C42.936,5.747 48.214,7.201 52.2,8.623C56.371,10.12 60.027,12.575 63.066,15.916C66.196,19.351 67.784,24.023 67.784,29.802C67.784,46.641 55.84,55.179 32.284,55.179" style="fill:rgb(30,141,193);fill-rule:nonzero;"/>
                    </g>
                    <g transform="matrix(1,0,0,1,387.41,840.392)">
                        <path d="M0,-16.815C0,-27.17 -4.32,-32.342 -12.965,-32.342C-17.905,-32.342 -21.633,-31.067 -24.149,-28.504C-26.671,-25.93 -28.214,-22.033 -28.782,-16.815L0,-16.815ZM-39.966,21.232C-45.904,14.866 -48.872,4.986 -48.872,-8.408C-48.872,-21.801 -45.904,-31.681 -39.966,-38.048C-34.035,-44.414 -25.03,-47.591 -12.965,-47.591C-1.85,-47.591 6.459,-44.391 11.973,-37.978C17.481,-31.565 20.235,-21.709 20.235,-8.408L20.235,-3.85L-29.066,-3.85C-28.88,2.806 -27.547,7.723 -25.077,10.9C-22.607,14.089 -18.479,15.678 -12.68,15.678C-8.599,15.678 -5.294,14.53 -2.777,12.257C-0.261,9.972 0.997,6.749 0.997,2.562L20.235,2.562C20.235,11.967 17.197,19.017 11.115,23.725C5.039,28.422 -2.992,30.776 -12.965,30.776C-25.03,30.776 -34.035,27.599 -39.966,21.232" style="fill:rgb(30,141,193);fill-rule:nonzero;"/>
                    </g>
                    <g transform="matrix(1,0,0,1,359.011,840.733)">
                        <path d="M0,-17.498L28.057,-17.498C27.965,-27.486 23.834,-32.342 15.435,-32.342C10.609,-32.342 6.928,-31.085 4.493,-28.606C2.102,-26.164 0.59,-22.428 0,-17.498M28.741,-16.814L-0.764,-16.814L-0.722,-17.193C-0.147,-22.467 1.443,-26.468 4.006,-29.085C6.574,-31.699 10.419,-33.025 15.435,-33.025C24.264,-33.025 28.741,-27.686 28.741,-17.156L28.741,-16.814ZM15.435,-47.591C3.517,-47.591 -5.484,-44.417 -11.317,-38.156C-17.166,-31.886 -20.131,-21.991 -20.131,-8.749C-20.131,4.493 -17.166,14.388 -11.317,20.658C-5.485,26.919 3.516,30.093 15.435,30.093C25.282,30.093 33.314,27.745 39.306,23.113C45.196,18.555 48.219,11.642 48.292,2.563L29.735,2.563C29.667,6.659 28.361,9.89 25.852,12.169C23.273,14.497 19.864,15.678 15.719,15.678C9.837,15.678 5.575,14.025 3.053,10.768C0.545,7.542 -0.821,2.512 -1.008,-4.182L-1.018,-4.533L48.293,-4.533L48.293,-8.749C48.293,-21.903 45.541,-31.778 40.113,-38.097C34.696,-44.396 26.394,-47.591 15.435,-47.591M15.435,30.776C3.318,30.776 -5.851,27.528 -11.817,21.123C-17.787,14.723 -20.814,4.672 -20.814,-8.749C-20.814,-22.17 -17.787,-32.221 -11.817,-38.621C-5.85,-45.026 3.319,-48.274 15.435,-48.274C26.602,-48.274 35.079,-45 40.631,-38.542C46.168,-32.096 48.977,-22.071 48.977,-8.749L48.977,-3.85L-0.314,-3.85C-0.096,2.52 1.218,7.296 3.592,10.349C5.979,13.432 10.059,14.994 15.719,14.994C19.689,14.994 22.945,13.874 25.394,11.663C27.823,9.457 29.055,6.279 29.055,2.221L29.055,1.879L48.977,1.879L48.977,2.221C48.977,11.69 45.863,18.901 39.724,23.653C33.609,28.38 25.437,30.776 15.435,30.776" style="fill:rgb(30,141,193);fill-rule:nonzero;"/>
                    </g>
                    <g transform="matrix(1,0,0,1,359.554,841.204)">
                        <path d="M0,-18.439L27.034,-18.439C26.818,-27.792 22.838,-32.338 14.892,-32.338C10.194,-32.338 6.628,-31.128 4.285,-28.741C2.057,-26.468 0.618,-23.004 0,-18.439M28.671,-16.809L-1.834,-16.809L-1.732,-17.713C-1.146,-23.1 0.484,-27.194 3.126,-29.887C5.781,-32.593 9.742,-33.968 14.892,-33.968C24.035,-33.968 28.671,-28.467 28.671,-17.624L28.671,-16.809ZM14.892,-47.587C3.113,-47.587 -5.775,-44.461 -11.512,-38.304C-17.28,-32.122 -20.202,-22.336 -20.202,-9.22C-20.202,3.896 -17.28,13.682 -11.512,19.865C-5.775,26.022 3.113,29.148 14.892,29.148C24.628,29.148 32.561,26.837 38.476,22.272C44.136,17.878 47.097,11.257 47.269,2.566L29.651,2.566C29.492,6.577 28.142,9.767 25.627,12.053C22.959,14.459 19.445,15.682 15.179,15.682C9.137,15.682 4.75,13.969 2.139,10.582C-0.433,7.277 -1.834,2.152 -2.025,-4.635L-2.05,-5.476L47.275,-5.476L47.275,-9.22C47.275,-22.259 44.563,-32.033 39.214,-38.259C33.892,-44.448 25.704,-47.587 14.892,-47.587M14.892,30.778C2.642,30.778 -6.641,27.48 -12.708,20.973C-18.764,14.485 -21.832,4.323 -21.832,-9.22C-21.832,-22.762 -18.764,-32.924 -12.708,-39.412C-6.641,-45.919 2.642,-49.217 14.892,-49.217C26.2,-49.217 34.802,-45.887 40.45,-39.316C46.059,-32.79 48.905,-22.66 48.905,-9.22L48.905,-3.846L-0.363,-3.846C-0.102,2.171 1.172,6.685 3.425,9.582C5.718,12.549 9.671,14.052 15.179,14.052C19.031,14.052 22.176,12.969 24.532,10.843C26.894,8.697 28.04,5.724 28.04,1.751L28.04,0.936L48.905,0.936L48.905,1.751C48.905,11.371 45.734,18.706 39.469,23.558C33.261,28.352 24.997,30.778 14.892,30.778" style="fill:rgb(30,141,193);fill-rule:nonzero;"/>
                    </g>
                    <g transform="matrix(1,0,0,1,359.946,841.546)">
                        <path d="M0,-19.123L26.29,-19.123C25.989,-28.015 22.13,-32.338 14.5,-32.338C9.898,-32.338 6.411,-31.163 4.136,-28.844C2.025,-26.69 0.635,-23.422 0,-19.123M26.991,-18.439L-0.783,-18.439L-0.73,-18.827C-0.104,-23.466 1.37,-26.997 3.648,-29.322C6.058,-31.776 9.708,-33.021 14.5,-33.021C22.678,-33.021 26.761,-28.366 26.982,-18.789L26.991,-18.439ZM-1.845,-17.493L27.937,-17.493L27.937,-17.966C27.937,-28.584 23.416,-33.968 14.5,-33.968C9.444,-33.968 5.567,-32.63 2.977,-29.989C0.395,-27.357 -1.208,-23.329 -1.785,-18.018L-1.845,-17.493ZM28.62,-16.81L-2.608,-16.81L-2.463,-18.093C-1.87,-23.559 -0.203,-27.723 2.49,-30.468C5.214,-33.243 9.254,-34.651 14.5,-34.651C23.869,-34.651 28.62,-29.037 28.62,-17.966L28.62,-16.81ZM14.5,-47.587C2.816,-47.587 -5.983,-44.501 -11.654,-38.413C-17.36,-32.299 -20.253,-22.592 -20.253,-9.561C-20.253,3.469 -17.36,13.176 -11.654,19.29C-5.983,25.378 2.816,28.464 14.5,28.464C24.16,28.464 32.024,26.175 37.874,21.659C43.376,17.39 46.286,10.967 46.526,2.565L29.584,2.565C29.361,6.519 27.977,9.68 25.464,11.964C22.729,14.431 19.137,15.682 14.786,15.682C8.631,15.682 4.153,13.921 1.477,10.448C-1.141,7.086 -2.565,1.899 -2.758,-4.968L-2.794,-6.159L46.54,-6.159L46.54,-9.561C46.54,-22.519 43.856,-32.216 38.563,-38.379C33.308,-44.489 25.212,-47.587 14.5,-47.587M14.5,29.148C2.62,29.148 -6.348,25.987 -12.154,19.755C-17.981,13.511 -20.937,3.647 -20.937,-9.561C-20.937,-22.769 -17.981,-32.634 -12.154,-38.878C-6.348,-45.11 2.62,-48.27 14.5,-48.27C25.42,-48.27 33.689,-45.092 39.08,-38.824C44.483,-32.533 47.224,-22.687 47.224,-9.561L47.224,-5.476L-2.091,-5.476L-2.076,-4.988C-1.888,1.731 -0.511,6.784 2.017,10.03C4.558,13.327 8.854,14.998 14.786,14.998C18.962,14.998 22.4,13.808 25.006,11.457C27.445,9.239 28.763,6.128 28.918,2.21L28.931,1.882L47.225,1.882L47.217,2.231C47.043,11.019 44.041,17.737 38.292,22.199C32.319,26.81 24.314,29.148 14.5,29.148M14.5,-49.217C2.351,-49.217 -6.852,-45.955 -12.852,-39.521C-18.845,-33.1 -21.883,-23.019 -21.883,-9.561C-21.883,3.897 -18.845,13.977 -12.852,20.398C-6.852,26.832 2.351,30.094 14.5,30.094C24.526,30.094 32.725,27.69 38.867,22.945C45.041,18.165 48.171,10.92 48.171,1.409L48.171,0.936L27.989,0.936L27.989,1.409C27.989,5.485 26.805,8.542 24.369,10.754C21.943,12.942 18.72,14.052 14.786,14.052C9.168,14.052 5.122,12.503 2.763,9.449C0.467,6.497 -0.832,1.914 -1.097,-4.173L-1.112,-4.529L48.171,-4.529L48.171,-9.561C48.171,-22.92 45.354,-32.971 39.798,-39.435C34.22,-45.927 25.708,-49.217 14.5,-49.217M14.5,30.777C2.154,30.777 -7.217,27.441 -13.352,20.863C-19.466,14.312 -22.566,4.075 -22.566,-9.561C-22.566,-23.198 -19.466,-33.435 -13.352,-39.986C-7.217,-46.564 2.154,-49.9 14.5,-49.9C25.916,-49.9 34.602,-46.529 40.315,-39.881C45.981,-33.289 48.854,-23.088 48.854,-9.561L48.854,-3.846L-0.398,-3.846C-0.105,1.918 1.139,6.249 3.303,9.03C5.526,11.909 9.39,13.368 14.786,13.368C18.546,13.368 21.615,12.318 23.911,10.247C26.195,8.173 27.306,5.281 27.306,1.409L27.306,0.252L48.854,0.252L48.854,1.409C48.854,11.142 45.635,18.569 39.285,23.485C33.02,28.324 24.681,30.777 14.5,30.777" style="fill:rgb(30,141,193);fill-rule:nonzero;"/>
                    </g>
                    <g transform="matrix(1,0,0,1,427.306,867.84)">
                        <path d="M0,-73.253L16.67,-73.253L18.096,-63.419L19.093,-63.419C24.601,-71.108 31.727,-74.958 40.465,-74.958C49.968,-74.958 56.52,-71.108 60.132,-63.419L61.275,-63.419C66.974,-71.108 74.384,-74.958 83.499,-74.958C90.625,-74.958 96.301,-72.87 100.528,-68.696C104.755,-64.509 106.871,-57.807 106.871,-48.599L106.871,1.705L87.349,1.705L87.349,-44.471C87.349,-53.296 83.69,-57.714 76.379,-57.714C72.575,-57.714 69.438,-56.172 66.974,-53.087C64.498,-50.003 63.269,-46.176 63.269,-41.618L63.269,1.705L43.747,1.705L43.747,-44.471C43.747,-53.296 40.088,-57.714 32.771,-57.714C28.973,-57.714 25.813,-56.172 23.297,-53.087C20.78,-50.003 19.522,-46.176 19.522,-41.618L19.522,1.705L0,1.705L0,-73.253Z" style="fill:rgb(30,141,193);fill-rule:nonzero;"/>
                    </g>
                    <g transform="matrix(1,0,0,1,514.997,793.224)">
                        <path d="M0,75.979L18.839,75.979L18.839,26.016C18.839,16.944 16.739,10.264 12.597,6.162C8.456,2.073 2.807,0 -4.192,0C-13.149,0 -20.534,3.834 -26.142,11.399L-26.244,11.538L-27.775,11.538L-27.867,11.341C-31.403,3.815 -37.916,0 -47.226,0C-55.805,0 -62.902,3.833 -68.32,11.395L-68.422,11.538L-69.89,11.538L-71.316,1.705L-87.349,1.705L-87.349,75.979L-68.51,75.979L-68.51,32.997C-68.51,28.375 -67.214,24.445 -64.658,21.313C-62.086,18.16 -58.81,16.56 -54.92,16.56C-47.41,16.56 -43.602,21.13 -43.602,30.144L-43.602,75.979L-24.764,75.979L-24.764,32.997C-24.764,28.371 -23.491,24.44 -20.983,21.315C-18.462,18.161 -15.209,16.56 -11.313,16.56C-3.807,16.56 0,21.13 0,30.144L0,75.979ZM19.522,76.663L-0.684,76.663L-0.684,30.144C-0.684,21.463 -4.16,17.244 -11.313,17.244C-14.991,17.244 -18.065,18.756 -20.45,21.742C-22.859,24.743 -24.08,28.53 -24.08,32.997L-24.08,76.663L-44.285,76.663L-44.285,30.144C-44.285,21.463 -47.764,17.244 -54.92,17.244C-58.594,17.244 -61.692,18.757 -64.129,21.745C-66.583,24.751 -67.826,28.537 -67.826,32.997L-67.826,76.663L-88.032,76.663L-88.032,1.021L-70.727,1.021L-69.3,10.854L-68.772,10.854C-63.232,3.199 -55.983,-0.684 -47.226,-0.684C-37.71,-0.684 -31.021,3.198 -27.343,10.854L-26.587,10.854C-20.856,3.199 -13.323,-0.684 -4.192,-0.684C2.993,-0.684 8.803,1.457 13.077,5.676C17.354,9.912 19.522,16.755 19.522,26.016L19.522,76.663Z" style="fill:rgb(30,141,193);fill-rule:nonzero;"/>
                    </g>
                    <g transform="matrix(1,0,0,1,515.469,793.699)">
                        <path d="M0,75.029L17.891,75.029L17.891,25.538C17.891,16.599 15.841,10.035 11.792,6.024C7.749,2.025 2.209,-0 -4.661,-0C-13.466,-0 -20.725,3.77 -26.232,11.206L-26.48,11.537L-28.543,11.537L-28.766,11.066C-32.268,3.623 -38.457,-0 -47.695,-0C-56.119,-0 -63.084,3.77 -68.407,11.2L-68.649,11.537L-70.776,11.537L-72.202,1.7L-87.349,1.7L-87.349,75.029L-69.458,75.029L-69.458,32.523C-69.458,27.792 -68.127,23.762 -65.497,20.54C-62.836,17.268 -59.436,15.612 -55.393,15.612C-47.568,15.612 -43.601,20.343 -43.601,29.671L-43.601,75.029L-25.71,75.029L-25.71,32.523C-25.71,27.786 -24.405,23.756 -21.826,20.547C-19.216,17.274 -15.835,15.612 -11.785,15.612C-3.967,15.612 0,20.343 0,29.671L0,75.029ZM19.521,76.659L-1.63,76.659L-1.63,29.671C-1.63,21.304 -4.954,17.242 -11.785,17.242C-15.364,17.242 -18.229,18.656 -20.553,21.565C-22.896,24.475 -24.08,28.162 -24.08,32.523L-24.08,76.659L-45.231,76.659L-45.231,29.671C-45.231,21.304 -48.555,17.242 -55.393,17.242C-58.971,17.242 -61.862,18.656 -64.237,21.572C-66.618,24.494 -67.828,28.174 -67.828,32.523L-67.828,76.659L-88.979,76.659L-88.979,0.07L-70.788,0.07L-69.381,9.767C-63.785,2.203 -56.488,-1.63 -47.695,-1.63C-38.094,-1.63 -31.307,2.254 -27.518,9.907L-27.295,9.907C-21.495,2.254 -13.88,-1.63 -4.661,-1.63C2.655,-1.63 8.576,0.554 12.938,4.865C17.305,9.194 19.521,16.147 19.521,25.538L19.521,76.659Z" style="fill:rgb(30,141,193);fill-rule:nonzero;"/>
                    </g>
                    <g transform="matrix(1,0,0,1,515.81,794.041)">
                        <path d="M0,74.346L17.207,74.346L17.207,25.197C17.207,16.352 15.189,9.867 11.21,5.924C7.233,1.993 1.778,-0 -5.003,-0C-13.695,-0 -20.86,3.724 -26.3,11.068L-26.651,11.537L-29.101,11.537L-29.417,10.871C-32.858,3.556 -38.949,-0 -48.037,-0C-56.34,-0 -63.215,3.72 -68.472,11.058L-68.816,11.537L-71.412,11.537L-72.839,1.7L-87.349,1.7L-87.349,74.346L-70.142,74.346L-70.142,32.182C-70.142,27.369 -68.782,23.265 -66.104,19.983C-63.377,16.63 -59.888,14.929 -55.734,14.929C-47.684,14.929 -43.602,19.775 -43.602,29.329L-43.602,74.346L-26.394,74.346L-26.394,32.182C-26.394,27.362 -25.062,23.26 -22.434,19.992C-19.755,16.633 -16.287,14.929 -12.127,14.929C-4.08,14.929 0,19.775 0,29.329L0,74.346ZM17.891,75.03L-0.684,75.03L-0.684,29.329C-0.684,20.227 -4.533,15.613 -12.127,15.613C-16.068,15.613 -19.357,17.229 -21.901,20.418C-24.429,23.564 -25.71,27.521 -25.71,32.182L-25.71,75.03L-44.285,75.03L-44.285,29.329C-44.285,20.227 -48.137,15.613 -55.734,15.613C-59.673,15.613 -62.983,17.228 -65.574,20.414C-68.151,23.572 -69.458,27.531 -69.458,32.182L-69.458,75.03L-88.032,75.03L-88.032,1.017L-72.249,1.017L-70.822,10.854L-69.166,10.854L-69.026,10.659C-63.635,3.133 -56.573,-0.683 -48.037,-0.683C-38.657,-0.683 -32.365,3.001 -28.8,10.579L-28.669,10.854L-26.993,10.854L-26.848,10.659C-21.273,3.134 -13.924,-0.683 -5.003,-0.683C1.965,-0.683 7.581,1.377 11.69,5.439C15.805,9.516 17.891,16.162 17.891,25.197L17.891,75.03ZM-1.63,75.976L18.838,75.976L18.838,25.197C18.838,15.904 16.657,9.03 12.355,4.766C8.062,0.522 2.221,-1.63 -5.003,-1.63C-14.107,-1.63 -21.631,2.206 -27.365,9.772L-27.468,9.908L-28.072,9.908L-28.166,9.717C-31.893,2.188 -38.578,-1.63 -48.037,-1.63C-56.718,-1.63 -63.922,2.158 -69.448,9.629L-69.941,10.295L-71.425,0.071L-88.979,0.071L-88.979,75.976L-68.512,75.976L-68.512,32.182C-68.512,27.758 -67.277,24.001 -64.843,21.015C-62.402,18.017 -59.423,16.559 -55.734,16.559C-48.667,16.559 -45.231,20.737 -45.231,29.329L-45.231,75.976L-24.764,75.976L-24.764,32.182C-24.764,27.739 -23.551,23.98 -21.16,21.01C-18.769,18.016 -15.813,16.559 -12.127,16.559C-5.063,16.559 -1.63,20.737 -1.63,29.329L-1.63,75.976ZM19.521,76.659L-2.313,76.659L-2.313,29.329C-2.313,21.196 -5.523,17.242 -12.127,17.242C-15.593,17.242 -18.373,18.615 -20.628,21.437C-22.919,24.283 -24.08,27.898 -24.08,32.182L-24.08,76.659L-45.915,76.659L-45.915,29.329C-45.915,21.196 -49.127,17.242 -55.734,17.242C-59.205,17.242 -62.011,18.617 -64.313,21.447C-66.646,24.308 -67.828,27.919 -67.828,32.182L-67.828,76.659L-89.662,76.659L-89.662,-0.613L-70.835,-0.613L-69.502,8.57C-63.906,1.347 -56.689,-2.313 -48.037,-2.313C-38.429,-2.313 -31.593,1.527 -27.712,9.101C-21.867,1.527 -14.229,-2.313 -5.003,-2.313C2.407,-2.313 8.409,-0.094 12.836,4.281C17.271,8.677 19.521,15.714 19.521,25.197L19.521,76.659Z" style="fill:rgb(30,141,193);fill-rule:nonzero;"/>
                    </g>
                    <g transform="matrix(1,0,0,1,553.111,867.154)">
                        <path d="M0,-73.253L16.67,-73.253L18.096,-63.419L19.093,-63.419C24.601,-71.108 31.727,-74.958 40.465,-74.958C49.968,-74.958 56.52,-71.108 60.132,-63.419L61.275,-63.419C66.974,-71.108 74.384,-74.958 83.499,-74.958C90.625,-74.958 96.301,-72.87 100.528,-68.696C104.755,-64.509 106.871,-57.807 106.871,-48.599L106.871,1.705L87.349,1.705L87.349,-44.471C87.349,-53.296 83.69,-57.714 76.379,-57.714C72.575,-57.714 69.438,-56.172 66.974,-53.087C64.498,-50.003 63.269,-46.176 63.269,-41.618L63.269,1.705L43.747,1.705L43.747,-44.471C43.747,-53.296 40.088,-57.714 32.771,-57.714C28.973,-57.714 25.813,-56.172 23.297,-53.087C20.78,-50.003 19.522,-46.176 19.522,-41.618L19.522,1.705L0,1.705L0,-73.253Z" style="fill:rgb(30,141,193);fill-rule:nonzero;"/>
                    </g>
                    <g transform="matrix(1,0,0,1,640.802,792.539)">
                        <path d="M0,75.979L18.839,75.979L18.839,26.016C18.839,16.944 16.739,10.264 12.597,6.162C8.457,2.073 2.809,0 -4.191,0C-13.149,0 -20.534,3.834 -26.142,11.399L-26.244,11.538L-27.775,11.538L-27.867,11.341C-31.402,3.815 -37.915,0 -47.226,0C-55.805,0 -62.902,3.833 -68.32,11.395L-68.422,11.538L-69.891,11.538L-71.316,1.705L-87.349,1.705L-87.349,75.979L-68.51,75.979L-68.51,32.997C-68.51,28.375 -67.214,24.445 -64.658,21.312C-62.085,18.159 -58.809,16.559 -54.92,16.559C-47.41,16.559 -43.602,21.13 -43.602,30.144L-43.602,75.979L-24.763,75.979L-24.763,32.997C-24.763,28.37 -23.491,24.439 -20.983,21.314C-18.462,18.16 -15.207,16.559 -11.312,16.559C-3.806,16.559 0,21.13 0,30.144L0,75.979ZM19.522,76.663L-0.684,76.663L-0.684,30.144C-0.684,21.462 -4.16,17.243 -11.312,17.243C-14.989,17.243 -18.064,18.755 -20.45,21.741C-22.858,24.743 -24.079,28.529 -24.079,32.997L-24.079,76.663L-44.285,76.663L-44.285,30.144C-44.285,21.462 -47.764,17.243 -54.92,17.243C-58.594,17.243 -61.691,18.756 -64.129,21.744C-66.583,24.751 -67.826,28.538 -67.826,32.997L-67.826,76.663L-88.032,76.663L-88.032,1.021L-70.725,1.021L-69.3,10.854L-68.772,10.854C-63.232,3.199 -55.983,-0.684 -47.226,-0.684C-37.709,-0.684 -31.021,3.198 -27.343,10.854L-26.587,10.854C-20.856,3.199 -13.322,-0.684 -4.191,-0.684C2.994,-0.684 8.804,1.457 13.077,5.676C17.354,9.912 19.522,16.755 19.522,26.016L19.522,76.663Z" style="fill:rgb(30,141,193);fill-rule:nonzero;"/>
                    </g>
                    <g transform="matrix(1,0,0,1,641.274,793.012)">
                        <path d="M0,75.035L17.891,75.035L17.891,25.544C17.891,16.599 15.841,10.034 11.792,6.023C7.742,2.025 2.203,-0 -4.667,-0C-13.46,-0 -20.718,3.769 -26.232,11.206L-26.48,11.537L-28.543,11.537L-28.766,11.072C-32.268,3.623 -38.463,-0 -47.695,-0C-56.112,-0 -63.084,3.769 -68.407,11.2L-68.649,11.537L-70.776,11.537L-72.202,1.706L-87.349,1.706L-87.349,75.035L-69.458,75.035L-69.458,32.523C-69.458,27.792 -68.127,23.762 -65.497,20.54C-62.836,17.267 -59.436,15.612 -55.393,15.612C-47.568,15.612 -43.601,20.343 -43.601,29.67L-43.601,75.035L-25.71,75.035L-25.71,32.523C-25.71,27.786 -24.405,23.755 -21.826,20.546C-19.216,17.274 -15.835,15.612 -11.785,15.612C-3.967,15.612 0,20.343 0,29.67L0,75.035ZM19.521,76.665L-1.63,76.665L-1.63,29.67C-1.63,21.304 -4.954,17.242 -11.785,17.242C-15.364,17.242 -18.229,18.655 -20.553,21.565C-22.896,24.475 -24.08,28.161 -24.08,32.523L-24.08,76.665L-45.231,76.665L-45.231,29.67C-45.231,21.304 -48.555,17.242 -55.393,17.242C-58.971,17.242 -61.862,18.655 -64.237,21.571C-66.618,24.494 -67.828,28.174 -67.828,32.523L-67.828,76.665L-88.979,76.665L-88.979,0.076L-70.788,0.076L-69.381,9.767C-63.778,2.203 -56.488,-1.63 -47.695,-1.63C-38.1,-1.63 -31.313,2.254 -27.518,9.907L-27.295,9.907C-21.489,2.254 -13.874,-1.63 -4.667,-1.63C2.649,-1.63 8.57,0.554 12.938,4.864C17.305,9.194 19.521,16.153 19.521,25.544L19.521,76.665Z" style="fill:rgb(30,141,193);fill-rule:nonzero;"/>
                    </g>
                    <g transform="matrix(1,0,0,1,641.616,793.353)">
                        <path d="M0,74.352L17.207,74.352L17.207,25.204C17.207,16.353 15.189,9.867 11.209,5.924C7.228,1.994 1.771,0 -5.009,0C-13.691,0 -20.854,3.724 -26.3,11.068L-26.651,11.538L-29.101,11.538L-29.416,10.878C-32.857,3.558 -38.948,0 -48.037,0C-56.341,0 -63.216,3.72 -68.472,11.058L-68.816,11.538L-71.413,11.538L-72.839,1.707L-87.35,1.707L-87.35,74.352L-70.142,74.352L-70.142,32.181C-70.142,27.37 -68.783,23.265 -66.104,19.983C-63.377,16.63 -59.888,14.929 -55.735,14.929C-47.685,14.929 -43.602,19.775 -43.602,29.33L-43.602,74.352L-26.394,74.352L-26.394,32.181C-26.394,27.362 -25.062,23.26 -22.434,19.992C-19.755,16.633 -16.287,14.929 -12.128,14.929C-4.081,14.929 0,19.775 0,29.33L0,74.352ZM17.891,75.036L-0.684,75.036L-0.684,29.33C-0.684,20.227 -4.534,15.613 -12.128,15.613C-16.069,15.613 -19.357,17.229 -21.901,20.418C-24.429,23.564 -25.71,27.521 -25.71,32.181L-25.71,75.036L-44.285,75.036L-44.285,29.33C-44.285,20.227 -48.138,15.613 -55.735,15.613C-59.673,15.613 -62.983,17.228 -65.575,20.414C-68.152,23.572 -69.458,27.531 -69.458,32.181L-69.458,75.036L-88.033,75.036L-88.033,1.024L-72.249,1.024L-70.823,10.854L-69.166,10.854L-69.026,10.66C-63.636,3.133 -56.574,-0.683 -48.037,-0.683C-38.657,-0.683 -32.364,3.003 -28.8,10.585L-28.671,10.854L-26.993,10.854L-26.848,10.66C-21.268,3.134 -13.92,-0.683 -5.009,-0.683C1.957,-0.683 7.575,1.377 11.689,5.439C15.804,9.514 17.891,16.164 17.891,25.204L17.891,75.036ZM-1.63,75.982L18.837,75.982L18.837,25.204C18.837,15.907 16.656,9.03 12.355,4.765C8.055,0.522 2.212,-1.629 -5.009,-1.629C-14.104,-1.629 -21.625,2.206 -27.366,9.772L-27.468,9.908L-28.072,9.908L-28.166,9.717C-31.899,2.188 -38.585,-1.629 -48.037,-1.629C-56.711,-1.629 -63.915,2.159 -69.449,9.629L-69.942,10.295L-71.426,0.078L-88.979,0.078L-88.979,75.982L-68.512,75.982L-68.512,32.181C-68.512,27.759 -67.277,24.002 -64.844,21.014C-62.402,18.017 -59.423,16.559 -55.735,16.559C-48.668,16.559 -45.231,20.737 -45.231,29.33L-45.231,75.982L-24.764,75.982L-24.764,32.181C-24.764,27.736 -23.551,23.977 -21.16,21.01C-18.77,18.016 -15.815,16.559 -12.128,16.559C-5.064,16.559 -1.63,20.737 -1.63,29.33L-1.63,75.982ZM19.521,76.665L-2.313,76.665L-2.313,29.33C-2.313,21.196 -5.523,17.243 -12.128,17.243C-15.594,17.243 -18.374,18.615 -20.628,21.437C-22.919,24.282 -24.08,27.896 -24.08,32.181L-24.08,76.665L-45.915,76.665L-45.915,29.33C-45.915,21.196 -49.127,17.243 -55.735,17.243C-59.204,17.243 -62.011,18.617 -64.314,21.446C-66.646,24.308 -67.828,27.92 -67.828,32.181L-67.828,76.665L-89.663,76.665L-89.663,-0.606L-70.836,-0.606L-69.503,8.57C-63.9,1.348 -56.682,-2.313 -48.037,-2.313C-38.436,-2.313 -31.6,1.528 -27.712,9.102C-21.861,1.528 -14.225,-2.313 -5.009,-2.313C2.397,-2.313 8.401,-0.094 12.835,4.28C17.271,8.678 19.521,15.717 19.521,25.204L19.521,76.665Z" style="fill:rgb(30,141,193);fill-rule:nonzero;"/>
                    </g>
                    <g transform="matrix(1,0,0,1,716.5,812.789)">
                        <path d="M0,38.337C2.569,35.252 3.85,31.136 3.85,26.01L3.85,23.726C-13.156,23.726 -21.656,27.529 -21.656,35.125C-21.656,37.502 -20.873,39.404 -19.308,40.83C-17.736,42.257 -15.342,42.964 -12.112,42.964C-6.604,42.964 -2.563,41.422 0,38.337M-34.197,53.795C-39.044,50.757 -41.462,45.248 -41.462,37.27C-41.462,27.668 -37.525,20.861 -29.634,16.814C-21.755,12.779 -10.593,10.761 3.85,10.761L3.85,5.485C3.85,2.168 3.114,-0.394 1.641,-2.203C0.168,-4.012 -2.609,-4.917 -6.697,-4.917C-11.069,-4.917 -14.176,-4.244 -16.026,-2.922C-17.881,-1.589 -18.809,-0.023 -18.809,1.786L-18.809,3.919L-37.618,3.919C-37.711,3.351 -37.757,2.308 -37.757,0.788C-37.757,-5.485 -34.98,-10.518 -29.425,-14.321C-23.865,-18.113 -16.478,-20.015 -7.265,-20.015C2.992,-20.015 10.663,-17.928 15.748,-13.753C20.827,-9.567 23.372,-3.537 23.372,4.348L23.372,37.409C23.372,39.114 23.848,40.378 24.799,41.19C25.744,41.99 26.932,42.396 28.359,42.396L32.348,42.396L32.348,56.079C29.31,57.598 25.552,58.352 21.094,58.352C17.197,58.352 13.944,57.494 11.33,55.789C8.715,54.085 6.935,51.661 5.989,48.518L5.131,48.518C2.377,51.754 -0.783,54.201 -4.343,55.859C-7.909,57.517 -12.536,58.352 -18.235,58.352C-24.033,58.352 -29.35,56.833 -34.197,53.795" style="fill:rgb(30,141,193);fill-rule:nonzero;"/>
                    </g>
                    <g transform="matrix(1,0,0,1,720.009,827.057)">
                        <path d="M0,9.799C-16.472,9.85 -24.822,13.57 -24.822,20.857C-24.822,23.122 -24.07,24.957 -22.587,26.31C-21.093,27.666 -18.748,28.354 -15.62,28.354C-10.24,28.354 -6.254,26.839 -3.771,23.851L-3.771,23.85C-1.269,20.845 0,16.771 0,11.741L0,9.799ZM-15.62,29.037C-18.924,29.037 -21.422,28.289 -23.046,26.815C-24.678,25.326 -25.506,23.322 -25.506,20.857C-25.506,13.066 -16.81,9.115 0.342,9.115L0.684,9.115L0.684,11.741C0.684,16.935 -0.639,21.155 -3.245,24.287C-5.864,27.439 -10.028,29.037 -15.62,29.037M1.466,33.908L2.735,33.908L2.809,34.152C3.726,37.201 5.475,39.584 8.008,41.235C10.56,42.899 13.781,43.741 17.585,43.741C21.892,43.741 25.562,43.021 28.498,41.598L28.498,28.469L24.851,28.469C23.351,28.469 22.079,28.035 21.069,27.182C20.043,26.305 19.522,24.945 19.522,23.141L19.522,-9.92C19.522,-17.655 16.999,-23.656 12.022,-27.758C7.023,-31.862 -0.646,-33.942 -10.773,-33.942C-19.867,-33.942 -27.258,-32.047 -32.741,-28.307C-38.171,-24.59 -40.924,-19.6 -40.924,-13.48C-40.924,-12.218 -40.892,-11.281 -40.827,-10.691L-22.659,-10.691L-22.659,-12.483C-22.659,-14.395 -21.675,-16.073 -19.733,-17.469C-17.821,-18.835 -14.615,-19.527 -10.205,-19.527C-6.03,-19.527 -3.136,-18.571 -1.603,-16.687C-0.086,-14.824 0.684,-12.166 0.684,-8.784L0.684,-3.166L0.342,-3.166C-13.979,-3.166 -25.193,-1.142 -32.987,2.85C-40.712,6.812 -44.629,13.592 -44.629,23.002C-44.629,30.82 -42.238,36.282 -37.523,39.237C-32.756,42.227 -27.446,43.741 -21.743,43.741C-16.133,43.741 -11.507,42.913 -7.994,41.28C-4.492,39.649 -1.344,37.209 1.363,34.028L1.466,33.908ZM17.585,44.425C13.646,44.425 10.299,43.544 7.635,41.807C5.031,40.111 3.214,37.684 2.229,34.592L1.78,34.592C-0.968,37.788 -4.159,40.247 -7.706,41.9C-11.311,43.575 -16.033,44.425 -21.743,44.425C-27.576,44.425 -33.008,42.874 -37.887,39.816C-42.813,36.728 -45.313,31.07 -45.313,23.002C-45.313,13.316 -41.271,6.331 -33.299,2.242C-25.47,-1.767 -14.269,-3.816 0,-3.848L0,-8.784C0,-12.005 -0.717,-14.518 -2.132,-16.256C-3.529,-17.973 -6.246,-18.844 -10.205,-18.844C-14.471,-18.844 -17.543,-18.194 -19.336,-16.914C-21.112,-15.637 -21.976,-14.187 -21.976,-12.483L-21.976,-10.008L-41.416,-10.008L-41.463,-10.295C-41.56,-10.888 -41.607,-11.93 -41.607,-13.48C-41.607,-19.84 -38.754,-25.018 -33.126,-28.871C-27.527,-32.689 -20.007,-34.626 -10.773,-34.626C-0.483,-34.626 7.332,-32.492 12.456,-28.285C17.599,-24.048 20.206,-17.868 20.206,-9.92L20.206,23.141C20.206,24.737 20.646,25.921 21.512,26.661C22.393,27.407 23.517,27.785 24.851,27.785L29.182,27.785L29.182,42.022L28.992,42.116C25.929,43.648 22.091,44.425 17.585,44.425" style="fill:rgb(30,141,193);fill-rule:nonzero;"/>
                    </g>
                    <g transform="matrix(1,0,0,1,719.537,826.586)">
                        <path d="M0,10.747C-15.841,10.868 -23.876,14.427 -23.876,21.329C-23.876,23.487 -23.195,25.155 -21.794,26.429C-20.393,27.709 -18.159,28.352 -15.147,28.352C-9.913,28.352 -6.049,26.894 -3.667,24.016L-3.661,24.016C-1.235,21.1 0,17.127 0,12.211L0,10.747ZM-15.147,29.982C-18.579,29.982 -21.183,29.192 -22.889,27.639C-24.628,26.053 -25.506,23.933 -25.506,21.329C-25.506,13.224 -16.65,9.117 0.815,9.117L1.63,9.117L1.63,12.211C1.63,17.515 0.267,21.838 -2.413,25.06C-5.119,28.326 -9.404,29.982 -15.147,29.982M1.719,33.904L3.559,33.904L3.737,34.483C4.616,37.425 6.297,39.723 8.736,41.309C11.212,42.919 14.345,43.741 18.057,43.741C22.164,43.741 25.672,43.079 28.499,41.773L28.499,29.415L25.322,29.415C23.704,29.415 22.329,28.944 21.234,28.008C20.094,27.04 19.521,25.563 19.521,23.615L19.521,-9.449C19.521,-17.032 17.057,-22.909 12.193,-26.92C7.29,-30.95 -0.28,-32.994 -10.302,-32.994C-19.305,-32.994 -26.608,-31.129 -32,-27.442C-37.368,-23.775 -39.978,-19.051 -39.978,-13.008C-39.978,-12.021 -39.959,-11.251 -39.921,-10.691L-22.66,-10.691L-22.66,-12.009C-22.66,-14.078 -21.61,-15.886 -19.54,-17.382C-17.535,-18.809 -14.237,-19.528 -9.735,-19.528C-5.355,-19.528 -2.419,-18.541 -0.764,-16.516C0.828,-14.562 1.63,-11.805 1.63,-8.309L1.63,-2.223L0.815,-2.223C-13.434,-2.223 -24.577,-0.217 -32.3,3.743C-39.959,7.672 -43.684,14.128 -43.684,23.475C-43.684,31.115 -41.366,36.444 -36.801,39.309C-32.109,42.251 -26.881,43.741 -21.272,43.741C-15.727,43.741 -11.168,42.926 -7.723,41.321C-4.285,39.723 -1.191,37.323 1.477,34.19L1.719,33.904ZM18.057,45.371C14.026,45.371 10.588,44.46 7.844,42.671C5.266,40.99 3.432,38.622 2.388,35.623C-0.357,38.749 -3.521,41.162 -7.036,42.798C-10.697,44.505 -15.485,45.371 -21.272,45.371C-27.193,45.371 -32.707,43.798 -37.667,40.685C-42.742,37.507 -45.314,31.714 -45.314,23.475C-45.314,13.593 -41.182,6.468 -33.038,2.292C-25.232,-1.707 -14.122,-3.776 0,-3.853L0,-8.309C0,-11.417 -0.681,-13.836 -2.025,-15.485C-3.336,-17.083 -5.928,-17.898 -9.735,-17.898C-13.893,-17.898 -16.873,-17.281 -18.592,-16.058C-20.228,-14.874 -21.03,-13.549 -21.03,-12.009L-21.03,-9.061L-41.341,-9.061L-41.456,-9.742C-41.557,-10.353 -41.608,-11.391 -41.608,-13.008C-41.608,-19.534 -38.686,-24.844 -32.917,-28.792C-27.251,-32.663 -19.636,-34.624 -10.302,-34.624C0.108,-34.624 8.022,-32.453 13.224,-28.181C18.483,-23.845 21.151,-17.542 21.151,-9.449L21.151,23.615C21.151,25.066 21.533,26.123 22.291,26.773C23.08,27.441 24.099,27.785 25.322,27.785L30.129,27.785L30.129,42.786L29.677,43.009C26.55,44.575 22.635,45.371 18.057,45.371" style="fill:rgb(30,141,193);fill-rule:nonzero;"/>
                    </g>
                    <g transform="matrix(1,0,0,1,719.195,826.24)">
                        <path d="M0,11.438C-15.39,11.604 -23.192,15.047 -23.192,21.675C-23.192,23.732 -22.549,25.318 -21.223,26.522C-19.89,27.74 -17.731,28.356 -14.806,28.356C-9.676,28.356 -5.901,26.939 -3.588,24.144L-3.48,24.02C-1.171,21.174 0,17.319 0,12.557L0,11.438ZM-14.806,29.04C-17.907,29.04 -20.221,28.362 -21.683,27.027C-23.158,25.686 -23.876,23.935 -23.876,21.675C-23.876,14.549 -15.729,10.874 0.339,10.751L0.684,10.75L0.684,12.557C0.684,17.551 -0.575,21.597 -3.057,24.581L-3.166,24.704C-5.622,27.581 -9.537,29.04 -14.806,29.04M1.157,9.805C-16.082,9.805 -24.822,13.798 -24.822,21.675C-24.822,24.178 -23.979,26.216 -22.317,27.733C-20.674,29.228 -18.146,29.986 -14.806,29.986C-9.168,29.986 -4.972,28.372 -2.334,25.188C0.297,22.026 1.63,17.777 1.63,12.557L1.63,9.805L1.157,9.805ZM-14.806,30.669C-18.321,30.669 -21.004,29.851 -22.777,28.238C-24.588,26.585 -25.506,24.378 -25.506,21.675C-25.506,13.345 -16.535,9.122 1.157,9.122L2.313,9.122L2.313,12.557C2.313,17.941 0.926,22.337 -1.809,25.625C-4.582,28.971 -8.955,30.669 -14.806,30.669M1.901,33.908L4.153,33.908L4.405,34.728C5.262,37.596 6.896,39.829 9.264,41.369C11.688,42.946 14.762,43.745 18.398,43.745C22.354,43.745 25.751,43.125 28.499,41.9L28.499,30.103L25.663,30.103C23.96,30.103 22.511,29.602 21.354,28.614C20.139,27.583 19.521,26.016 19.521,23.96L19.521,-9.103C19.521,-16.58 17.098,-22.37 12.317,-26.311C7.479,-30.29 -0.017,-32.306 -9.96,-32.306C-18.898,-32.306 -26.135,-30.458 -31.467,-26.814C-36.734,-23.215 -39.295,-18.586 -39.295,-12.663C-39.295,-11.868 -39.282,-11.205 -39.257,-10.687L-22.66,-10.687L-22.66,-11.663C-22.66,-13.847 -21.562,-15.749 -19.398,-17.313C-17.335,-18.781 -13.97,-19.524 -9.394,-19.524C-4.905,-19.524 -1.885,-18.498 -0.157,-16.386C1.481,-14.374 2.313,-11.54 2.313,-7.963L2.313,-1.535L1.157,-1.535C-13.041,-1.535 -24.13,0.459 -31.803,4.393C-39.338,8.258 -43,14.613 -43,23.821C-43,31.336 -40.738,36.567 -36.277,39.366C-31.644,42.272 -26.479,43.745 -20.931,43.745C-15.437,43.745 -10.926,42.942 -7.526,41.358C-4.136,39.782 -1.079,37.413 1.56,34.315L1.901,33.908ZM18.398,44.428C14.628,44.428 11.429,43.591 8.891,41.941C6.385,40.311 4.655,37.951 3.752,34.926L3.649,34.591L2.22,34.591L2.081,34.756C-0.623,37.93 -3.758,40.359 -7.238,41.977C-10.729,43.603 -15.336,44.428 -20.931,44.428C-26.61,44.428 -31.896,42.919 -36.641,39.944C-41.313,37.012 -43.684,31.587 -43.684,23.821C-43.684,14.333 -39.898,7.779 -32.114,3.786C-24.344,-0.198 -13.15,-2.218 1.157,-2.218L1.63,-2.218L1.63,-7.963C1.63,-11.378 0.851,-14.068 -0.687,-15.955C-2.275,-17.897 -5.123,-18.84 -9.394,-18.84C-13.825,-18.84 -17.058,-18.14 -19,-16.758C-20.975,-15.331 -21.977,-13.616 -21.977,-11.663L-21.977,-10.003L-39.898,-10.003L-39.92,-10.322C-39.958,-10.891 -39.979,-11.679 -39.979,-12.663C-39.979,-18.829 -37.32,-23.642 -31.852,-27.378C-26.404,-31.101 -19.039,-32.99 -9.96,-32.99C0.146,-32.99 7.786,-30.919 12.751,-26.838C17.697,-22.76 20.205,-16.793 20.205,-9.103L20.205,23.96C20.205,25.806 20.74,27.197 21.797,28.093C22.827,28.974 24.128,29.419 25.663,29.419L29.183,29.419L29.183,42.338L28.983,42.429C26.11,43.755 22.549,44.428 18.398,44.428M2.859,35.303L3.052,35.856C4.069,38.781 5.859,41.093 8.372,42.731C11.063,44.486 14.437,45.375 18.398,45.375C22.927,45.375 26.785,44.592 29.865,43.049L30.129,42.919L30.129,28.473L25.663,28.473C24.362,28.473 23.269,28.105 22.412,27.379C21.575,26.662 21.151,25.512 21.151,23.96L21.151,-9.103C21.151,-17.088 18.526,-23.302 13.35,-27.571C8.207,-31.794 0.364,-33.936 -9.96,-33.936C-19.232,-33.936 -26.776,-31.995 -32.383,-28.164C-38.051,-24.286 -40.925,-19.07 -40.925,-12.663C-40.925,-11.099 -40.877,-10.048 -40.776,-9.453L-40.71,-9.056L-21.03,-9.056L-21.03,-11.663C-21.03,-13.317 -20.186,-14.732 -18.45,-15.989C-16.672,-17.253 -13.625,-17.894 -9.394,-17.894C-5.484,-17.894 -2.801,-17.04 -1.419,-15.356C-0.023,-13.642 0.684,-11.156 0.684,-7.963L0.684,-3.166L0.344,-3.165C-13.715,-3.089 -24.778,-1.035 -32.541,2.941C-40.563,7.055 -44.63,14.081 -44.63,23.821C-44.63,31.938 -42.111,37.63 -37.144,40.742C-32.246,43.816 -26.791,45.375 -20.931,45.375C-15.194,45.375 -10.453,44.52 -6.838,42.834C-3.375,41.223 -0.242,38.837 2.473,35.743L2.859,35.303ZM18.398,46.058C14.302,46.058 10.803,45.13 7.999,43.303C5.514,41.683 3.701,39.436 2.605,36.62C-0.084,39.579 -3.161,41.876 -6.55,43.454C-10.255,45.181 -15.094,46.058 -20.931,46.058C-26.921,46.058 -32.498,44.463 -37.507,41.32C-42.687,38.076 -45.313,32.188 -45.313,23.821C-45.313,13.803 -41.12,6.575 -32.853,2.334C-25.057,-1.66 -14.005,-3.738 0,-3.845L0,-7.963C0,-10.995 -0.655,-13.336 -1.947,-14.923C-3.193,-16.441 -5.698,-17.21 -9.394,-17.21C-13.48,-17.21 -16.394,-16.613 -18.052,-15.434C-19.596,-14.317 -20.347,-13.083 -20.347,-11.663L-20.347,-8.373L-41.288,-8.373L-41.45,-9.339C-41.558,-9.982 -41.608,-11.039 -41.608,-12.663C-41.608,-19.309 -38.634,-24.713 -32.768,-28.727C-27.046,-32.637 -19.372,-34.62 -9.96,-34.62C0.526,-34.62 8.515,-32.425 13.783,-28.098C19.126,-23.693 21.835,-17.302 21.835,-9.103L21.835,23.96C21.835,25.304 22.178,26.279 22.854,26.86C23.583,27.476 24.528,27.79 25.663,27.79L30.812,27.79L30.812,43.343L30.169,43.661C26.995,45.251 23.034,46.058 18.398,46.058" style="fill:rgb(30,141,193);fill-rule:nonzero;"/>
                    </g>
                    <g transform="matrix(1,0,0,1,349.173,870.085)">
                        <path d="M0,-97.291L-22.183,-97.291C-22.604,-97.291 -23.009,-97.128 -23.312,-96.836L-72.5,-49.466C-72.868,-49.112 -73.48,-49.373 -73.479,-49.884L-73.43,-73.586C-73.428,-74.199 -73.926,-74.697 -74.539,-74.695L-91.874,-74.654C-92.483,-74.652 -92.977,-74.159 -92.978,-73.549L-93.102,-7.592C-93.103,-7.595 -93.108,-7.607 -93.108,-7.607L-93.108,-0.14L-73.75,-0.14L-73.516,-23.406L-73.519,-23.403L-65.366,-31.167L-47.13,0L-24.755,0L-50.77,-45.067L-51.755,-44.129L1.122,-94.486C2.186,-95.499 1.469,-97.291 0,-97.291" style="fill:rgb(30,141,193);fill-rule:nonzero;"/>
                    </g>
                    <g transform="matrix(1,0,0,1,302.238,773.136)">
                        <path d="M0,96.607L21.588,96.607L-3.915,52.428L-4.586,53.067L-5.057,52.573L-3.757,51.336L47.821,2.216C48.286,1.774 48.284,1.199 48.128,0.807C47.972,0.417 47.576,0 46.935,0L24.751,0C24.417,0 24.1,0.127 23.858,0.359L-25.329,47.729C-25.599,47.989 -25.98,48.06 -26.327,47.913C-26.673,47.765 -26.887,47.44 -26.887,47.064L-26.837,23.362C-26.836,23.157 -26.916,22.964 -27.061,22.819C-27.205,22.674 -27.397,22.595 -27.603,22.595L-27.604,22.595L-44.938,22.637C-45.359,22.637 -45.701,22.98 -45.702,23.401L-45.832,96.467L-27.153,96.467L-26.923,73.539L-26.611,73.543L-26.82,73.298L-18.354,65.237L0,96.607ZM22.77,97.291L-0.391,97.291L-0.49,97.122L-18.509,66.327L-26.241,73.689L-26.478,97.151L-46.515,97.151L-46.515,87.503L-46.506,87.526L-46.384,23.399C-46.383,22.604 -45.735,21.956 -44.94,21.954L-27.605,21.912L-27.603,21.912C-27.216,21.912 -26.852,22.063 -26.578,22.336C-26.304,22.611 -26.153,22.975 -26.153,23.364L-26.203,47.066C-26.204,47.208 -26.103,47.266 -26.06,47.285C-26.016,47.303 -25.904,47.336 -25.802,47.237L23.386,-0.133C23.755,-0.488 24.239,-0.684 24.751,-0.684L46.935,-0.684C47.757,-0.684 48.457,-0.209 48.762,0.554C49.067,1.317 48.888,2.144 48.292,2.711L-3.406,51.944L22.77,97.291Z" style="fill:rgb(30,141,193);fill-rule:nonzero;"/>
                    </g>
                    <g transform="matrix(1,0,0,1,302.505,773.611)">
                        <path d="M0,95.658L20.502,95.658L-4.291,52.713L-4.527,52.935L-5.648,51.751L47.23,1.395C47.6,1.044 47.472,0.631 47.421,0.51C47.377,0.389 47.179,0 46.67,0L24.481,0C24.271,0 24.067,0.083 23.921,0.223L-25.264,47.594C-25.672,47.982 -26.27,48.097 -26.78,47.874C-27.295,47.657 -27.626,47.148 -27.626,46.588L-27.575,22.89C-27.575,22.724 -27.709,22.59 -27.875,22.59L-45.206,22.635C-45.365,22.635 -45.492,22.762 -45.492,22.921L-45.626,95.518L-27.894,95.518L-27.658,72.718L-27.41,72.476L-18.515,64.008L0,95.658ZM23.329,97.288L-0.93,97.288L-18.884,66.605L-26.041,73.418L-26.277,97.148L-47.256,97.148L-47.256,85.414L-47.243,85.439L-47.122,22.921C-47.122,21.865 -46.263,21.005 -45.206,21.005L-27.875,20.96C-26.811,20.96 -25.945,21.826 -25.945,22.89L-25.996,46.034L22.787,-0.948C23.246,-1.388 23.844,-1.63 24.481,-1.63L46.67,-1.63C47.676,-1.63 48.561,-1.025 48.937,-0.095C49.306,0.834 49.077,1.885 48.351,2.579L-3.075,51.554L23.329,97.288Z" style="fill:rgb(30,141,193);fill-rule:nonzero;"/>
                    </g>
                    <g transform="matrix(1,0,0,1,302.701,773.953)">
                        <path d="M0,94.975L19.715,94.975L-4.566,52.916L-4.736,53.077L-6.325,51.397L46.799,0.806C47.009,0.608 46.947,0.386 46.911,0.3C46.881,0.22 46.775,0 46.475,0L24.285,0C24.166,0 24.045,0.048 23.961,0.128L-25.224,47.498C-25.734,47.987 -26.479,48.122 -27.112,47.845C-27.749,47.578 -28.164,46.95 -28.164,46.246L-28.113,22.547L-45.4,22.635L-45.48,94.835L-28.428,94.835L-28.193,72.231L-27.844,71.89L-18.634,63.121L0,94.975ZM20.896,95.659L-0.391,95.659L-18.788,64.211L-27.514,72.522L-27.752,95.519L-46.164,95.519L-46.029,22.579C-46.029,22.234 -45.748,21.952 -45.401,21.952L-28.071,21.908C-27.718,21.908 -27.43,22.196 -27.43,22.548L-27.48,46.247C-27.48,46.674 -27.23,47.055 -26.844,47.218C-26.454,47.385 -26.008,47.303 -25.695,47.005L23.488,-0.364C23.699,-0.567 23.989,-0.683 24.285,-0.683L46.475,-0.683C47.064,-0.683 47.42,-0.289 47.546,0.049C47.687,0.385 47.692,0.901 47.269,1.301L-5.362,51.422L-4.709,52.112L-4.408,51.827L-4.191,52.201L20.896,95.659ZM-0.93,96.605L22.542,96.605L-3.701,51.151L-3.507,50.965L47.92,1.991C48.544,1.394 48.742,0.491 48.424,-0.31C48.1,-1.111 47.335,-1.629 46.475,-1.629L24.285,-1.629C23.74,-1.629 23.223,-1.421 22.828,-1.044L-26.535,46.497L-26.483,22.547C-26.483,21.673 -27.195,20.961 -28.07,20.961L-45.4,21.005C-46.27,21.005 -46.977,21.711 -46.977,22.58L-47.101,86.538L-47.11,86.519L-47.11,96.465L-26.811,96.465L-26.576,72.929L-19.003,65.719L-0.93,96.605ZM23.724,97.288L-1.32,97.288L-1.42,97.12L-19.157,66.809L-25.896,73.224L-26.135,97.149L-47.793,97.149L-47.793,83.626L-47.777,83.658L-47.659,22.579C-47.659,21.335 -46.646,20.322 -45.401,20.322L-28.071,20.278C-26.818,20.278 -25.8,21.296 -25.8,22.548L-25.85,44.888L22.355,-1.536C22.878,-2.037 23.562,-2.313 24.285,-2.313L46.475,-2.313C47.614,-2.313 48.628,-1.627 49.058,-0.564C49.479,0.497 49.218,1.694 48.392,2.485L-2.842,51.274L23.724,97.288Z" style="fill:rgb(30,141,193);fill-rule:nonzero;"/>
                    </g>
                    <g transform="matrix(1,0,0,1,123.04,832.589)">
                        <path d="M0,-20.891L0,0C0,1.327 1.607,1.988 2.54,1.046L12.896,-9.4C13.47,-9.979 13.47,-10.912 12.896,-11.491L2.54,-21.937C1.607,-22.879 0,-22.217 0,-20.891" style="fill:rgb(220,96,20);fill-rule:nonzero;"/>
                    </g>
                    <g transform="matrix(1,0,0,1,124.535,833.887)">
                        <path d="M0,-23.611C-0.183,-23.611 -0.369,-23.575 -0.549,-23.501C-1.09,-23.277 -1.427,-22.775 -1.427,-22.19L-1.427,-1.299C-1.427,-0.713 -1.09,-0.211 -0.548,0.012C-0.009,0.235 0.585,0.115 0.997,-0.3L11.353,-10.746C11.898,-11.297 11.898,-12.191 11.353,-12.742L0.997,-23.188C0.722,-23.465 0.367,-23.611 0,-23.611M0.001,0.259C-0.2,0.259 -0.403,0.22 -0.601,0.138C-1.194,-0.106 -1.563,-0.657 -1.563,-1.299L-1.563,-22.19C-1.563,-22.832 -1.195,-23.382 -0.601,-23.627C-0.007,-23.87 0.643,-23.739 1.094,-23.284L11.449,-12.838C12.047,-12.235 12.047,-11.253 11.449,-10.65L1.094,-0.205C0.792,0.1 0.403,0.259 0.001,0.259" style="fill:rgb(220,96,20);fill-rule:nonzero;"/>
                    </g>
                    <g transform="matrix(1,0,0,1,124.529,833.773)">
                        <path d="M0,-23.398C-0.172,-23.398 -0.344,-23.366 -0.509,-23.296C-1.012,-23.086 -1.324,-22.621 -1.324,-22.074L-1.324,-1.184C-1.324,-0.636 -1.012,-0.171 -0.509,0.039C-0.032,0.243 0.541,0.141 0.936,-0.254L11.295,-10.696C11.804,-11.212 11.804,-12.046 11.295,-12.561L0.936,-23.003C0.675,-23.264 0.344,-23.398 0,-23.398M0.006,0.465C-0.21,0.465 -0.427,0.427 -0.63,0.338C-1.261,0.077 -1.655,-0.502 -1.655,-1.184L-1.655,-22.074C-1.655,-22.755 -1.261,-23.341 -0.637,-23.595C0.006,-23.863 0.7,-23.716 1.165,-23.232L11.524,-12.791C12.161,-12.148 12.161,-11.11 11.524,-10.467L1.165,-0.025C0.847,0.3 0.433,0.465 0.006,0.465" style="fill:rgb(220,96,20);fill-rule:nonzero;"/>
                    </g>
                    <g transform="matrix(1,0,0,1,124.529,833.701)">
                        <path d="M0,-23.258C-0.17,-23.258 -0.333,-23.226 -0.482,-23.162C-0.96,-22.963 -1.256,-22.519 -1.256,-22.002L-1.256,-1.112C-1.256,-0.596 -0.96,-0.152 -0.483,0.047C-0.019,0.248 0.52,0.137 0.888,-0.231L11.247,-10.672C11.728,-11.159 11.728,-11.954 11.246,-12.443L0.888,-22.884C0.646,-23.125 0.331,-23.258 0,-23.258M-0.005,0.282C-0.185,0.282 -0.365,0.246 -0.536,0.173C-1.064,-0.047 -1.393,-0.54 -1.393,-1.112L-1.393,-22.002C-1.393,-22.574 -1.064,-23.068 -0.536,-23.288C-0.369,-23.359 -0.188,-23.395 0,-23.395C0.367,-23.395 0.716,-23.247 0.984,-22.98L11.343,-12.538C11.877,-11.997 11.877,-11.116 11.343,-10.576L0.984,-0.135C0.712,0.138 0.355,0.282 -0.005,0.282M0.015,-23.588C-0.192,-23.588 -0.404,-23.546 -0.61,-23.46C-1.213,-23.215 -1.587,-22.656 -1.587,-22.002L-1.587,-1.112C-1.587,-0.464 -1.21,0.096 -0.604,0.346C-0.419,0.428 -0.214,0.469 0.006,0.469C0.425,0.469 0.819,0.302 1.116,-0.001L11.476,-10.444C12.084,-11.058 12.084,-12.057 11.476,-12.671L1.117,-23.113C0.817,-23.425 0.424,-23.588 0.015,-23.588M0.006,0.605C-0.232,0.605 -0.456,0.56 -0.658,0.472C-1.314,0.2 -1.724,-0.407 -1.724,-1.112L-1.724,-22.002C-1.724,-22.713 -1.317,-23.32 -0.663,-23.587C0.003,-23.863 0.723,-23.721 1.214,-23.208L11.573,-12.767C12.234,-12.1 12.234,-11.015 11.573,-10.348L1.213,0.095C0.891,0.424 0.461,0.605 0.006,0.605" style="fill:rgb(220,96,20);fill-rule:nonzero;"/>
                    </g>
                    <g transform="matrix(1,0,0,1,165.271,774.386)">
                        <path d="M0,94.01L-15.436,78.328C-15.716,78.042 -16.101,77.883 -16.502,77.886L-46.869,78.122C-47.691,78.128 -48.361,77.464 -48.361,76.642L-48.361,56.688C-48.361,56.297 -48.515,55.923 -48.79,55.646L-55.26,49.119C-55.832,48.542 -55.832,47.612 -55.26,47.035L-48.79,40.508C-48.515,40.231 -48.361,39.857 -48.361,39.466L-48.361,17.296C-48.361,16.483 -47.706,15.822 -46.893,15.815L-16.331,15.561C-15.946,15.558 -15.578,15.405 -15.303,15.134L-0.276,0.287C0.319,-0.301 -0.119,-1.588 -0.954,-1.592L-63.052,-1.592C-63.872,-1.596 -64.538,-0.932 -64.538,-0.112L-64.538,94.081C-64.538,94.898 -63.876,95.561 -63.06,95.561L-0.669,95.605C0.163,95.606 0.583,94.603 0,94.01" style="fill:rgb(30,141,193);fill-rule:nonzero;"/>
                    </g>
                    <g transform="matrix(1,0,0,1,102.215,869.649)">
                        <path d="M0,-96.513C-0.305,-96.513 -0.591,-96.396 -0.806,-96.181C-1.022,-95.966 -1.141,-95.679 -1.141,-95.374L-1.141,-1.182C-1.141,-0.554 -0.631,-0.043 -0.003,-0.043L62.387,0.001L62.388,0.001C62.636,0.001 62.841,-0.135 62.938,-0.365C63.034,-0.593 62.987,-0.836 62.813,-1.013L47.377,-16.696C47.165,-16.911 46.869,-17.035 46.565,-17.035C46.562,-17.035 46.56,-17.035 46.557,-17.034L16.189,-16.798C15.687,-16.818 15.239,-16.983 14.892,-17.327C14.545,-17.672 14.354,-18.131 14.354,-18.62L14.354,-38.575C14.354,-38.873 14.234,-39.165 14.024,-39.376L7.554,-45.903C6.853,-46.611 6.853,-47.761 7.554,-48.467L14.024,-54.994C14.237,-55.209 14.354,-55.494 14.354,-55.796L14.354,-77.967C14.354,-78.963 15.164,-79.78 16.16,-79.788L46.722,-80.043C47.02,-80.045 47.3,-80.161 47.513,-80.371L62.541,-95.219C62.759,-95.434 62.747,-95.8 62.638,-96.067C62.55,-96.282 62.363,-96.512 62.1,-96.513L0,-96.513ZM62.388,0.684L62.386,0.684L-0.003,0.64C-1.007,0.64 -1.824,-0.177 -1.824,-1.182L-1.824,-95.374C-1.824,-95.863 -1.633,-96.321 -1.288,-96.664C-0.944,-97.007 -0.487,-97.197 -0.001,-97.197L62.102,-97.197C62.605,-97.194 63.052,-96.86 63.27,-96.325C63.508,-95.742 63.409,-95.117 63.02,-94.733L47.992,-79.885C47.653,-79.55 47.204,-79.364 46.727,-79.36L16.166,-79.105C15.543,-79.1 15.037,-78.589 15.037,-77.967L15.037,-55.796C15.037,-55.313 14.849,-54.858 14.509,-54.514L8.039,-47.987C7.6,-47.545 7.6,-46.825 8.039,-46.383L14.508,-39.857C14.849,-39.515 15.037,-39.059 15.037,-38.575L15.037,-18.62C15.037,-18.315 15.156,-18.028 15.373,-17.812C15.588,-17.599 15.873,-17.481 16.176,-17.481C16.179,-17.481 16.181,-17.481 16.184,-17.482L46.552,-17.718L46.564,-17.718C47.05,-17.718 47.523,-17.52 47.864,-17.174L63.299,-1.492C63.667,-1.117 63.77,-0.584 63.567,-0.1C63.364,0.383 62.912,0.684 62.388,0.684" style="fill:rgb(30,141,193);fill-rule:nonzero;"/>
                    </g>
                    <g transform="matrix(1,0,0,1,102.212,869.174)">
                        <path d="M0,-95.562C-0.178,-95.562 -0.344,-95.492 -0.465,-95.371C-0.592,-95.25 -0.662,-95.078 -0.662,-94.9L-0.662,-0.707C-0.662,-0.344 -0.363,-0.044 0,-0.044L62.39,0L62.479,-0.204L47.046,-15.885C46.918,-16.019 46.74,-16.089 46.555,-16.089L16.198,-15.847C14.918,-15.847 13.88,-16.879 13.88,-18.146L13.88,-38.1C13.88,-38.278 13.81,-38.45 13.683,-38.577L7.22,-45.097C6.335,-45.982 6.335,-47.428 7.22,-48.325L13.689,-54.851C13.81,-54.979 13.88,-55.144 13.88,-55.323L13.88,-77.492C13.88,-78.747 14.905,-79.772 16.159,-79.785L46.721,-80.039C46.887,-80.039 47.058,-80.116 47.186,-80.237L62.212,-95.078C62.231,-95.097 62.256,-95.186 62.231,-95.301C62.206,-95.46 62.123,-95.549 62.091,-95.562L0,-95.562ZM62.397,1.63L62.384,1.63L0,1.586C-1.267,1.586 -2.292,0.56 -2.292,-0.707L-2.292,-94.9C-2.292,-95.517 -2.05,-96.097 -1.617,-96.53C-1.184,-96.956 -0.611,-97.192 -0.006,-97.192L62.104,-97.192C62.798,-97.192 63.409,-96.753 63.708,-96.04C64.02,-95.275 63.886,-94.448 63.364,-93.919L48.325,-79.071C47.899,-78.651 47.339,-78.422 46.74,-78.409L16.172,-78.155C15.803,-78.155 15.51,-77.862 15.51,-77.492L15.51,-55.323C15.51,-54.718 15.274,-54.145 14.854,-53.712L8.379,-47.179C8.124,-46.918 8.118,-46.504 8.379,-46.25L14.848,-39.717C15.274,-39.278 15.51,-38.705 15.51,-38.1L15.51,-18.146C15.51,-17.776 15.816,-17.477 16.191,-17.477L46.549,-17.719C47.173,-17.719 47.778,-17.464 48.211,-17.025L63.638,-1.35C64.141,-0.84 64.281,-0.095 64.007,0.56C63.734,1.21 63.103,1.63 62.397,1.63" style="fill:rgb(30,141,193);fill-rule:nonzero;"/>
                    </g>
                    <g transform="matrix(1,0,0,1,102.212,868.832)">
                        <path d="M0,-94.879C-0.085,-94.879 -0.165,-94.847 -0.224,-94.788C-0.288,-94.727 -0.321,-94.645 -0.321,-94.558L-0.321,-0.365C-0.321,-0.191 -0.174,-0.044 0,-0.044L61.864,0L46.803,-15.305C46.739,-15.371 46.653,-15.405 46.556,-15.405L16.201,-15.164C14.732,-15.164 13.539,-16.349 13.539,-17.804L13.539,-37.758C13.539,-37.848 13.504,-37.931 13.442,-37.993L6.978,-44.516C5.963,-45.53 5.962,-47.193 6.977,-48.223L13.447,-54.75C13.504,-54.811 13.539,-54.895 13.539,-54.981L13.539,-77.15C13.539,-78.588 14.713,-79.77 16.156,-79.784L46.718,-80.039C46.794,-80.039 46.885,-80.079 46.952,-80.143L61.871,-94.879L0,-94.879ZM62.613,0.684L62.39,0.684L0,0.64C-0.553,0.64 -1.003,0.188 -1.003,-0.365L-1.003,-94.558C-1.003,-94.831 -0.893,-95.093 -0.7,-95.276C-0.518,-95.459 -0.268,-95.563 0,-95.563L62.216,-95.538C62.387,-95.471 62.529,-95.26 62.568,-95.013C62.6,-94.874 62.593,-94.638 62.457,-94.498L47.426,-79.651C47.225,-79.462 46.97,-79.356 46.721,-79.356L16.163,-79.101C15.093,-79.09 14.222,-78.215 14.222,-77.15L14.222,-54.981C14.222,-54.718 14.12,-54.468 13.936,-54.275L7.462,-47.743C6.711,-46.981 6.71,-45.749 7.461,-44.997L13.925,-38.476C14.116,-38.285 14.222,-38.03 14.222,-37.758L14.222,-17.804C14.222,-16.725 15.108,-15.848 16.198,-15.848L46.553,-16.089C46.837,-16.089 47.106,-15.976 47.293,-15.779L62.885,0.064L62.613,0.684ZM0.013,-96.509C-0.521,-96.509 -1.008,-96.309 -1.378,-95.945C-1.747,-95.576 -1.951,-95.083 -1.951,-94.558L-1.951,-0.365C-1.951,0.711 -1.076,1.586 0,1.586L62.384,1.63L62.396,1.972L62.396,1.63C62.964,1.63 63.473,1.293 63.693,0.769C63.913,0.242 63.796,-0.361 63.395,-0.769L47.968,-16.444C47.597,-16.82 47.08,-17.035 46.549,-17.035L16.194,-16.794C15.627,-16.794 15.169,-17.247 15.169,-17.804L15.169,-37.758C15.169,-38.273 14.968,-38.762 14.604,-39.137L8.136,-45.668C7.75,-46.044 7.747,-46.678 8.134,-47.076L14.612,-53.61C14.97,-53.98 15.169,-54.467 15.169,-54.981L15.169,-77.15C15.169,-77.713 15.61,-78.154 16.172,-78.154L46.737,-78.409C47.247,-78.42 47.728,-78.62 48.086,-78.973L63.125,-93.82C63.545,-94.246 63.651,-94.934 63.393,-95.569C63.149,-96.148 62.655,-96.509 62.104,-96.509L0.013,-96.509ZM62.396,2.313L62.384,2.313L0,2.269C-1.452,2.269 -2.633,1.087 -2.633,-0.365L-2.633,-94.558C-2.633,-95.265 -2.358,-95.93 -1.859,-96.43C-1.358,-96.922 -0.701,-97.192 -0.006,-97.192L62.104,-97.192C62.935,-97.192 63.67,-96.67 64.023,-95.83C64.387,-94.939 64.223,-93.961 63.607,-93.337L48.565,-78.486C48.082,-78.011 47.437,-77.741 46.748,-77.727L16.175,-77.471C15.993,-77.471 15.852,-77.33 15.852,-77.15L15.852,-54.981C15.852,-54.288 15.584,-53.632 15.1,-53.133L8.621,-46.598C8.497,-46.47 8.494,-46.273 8.617,-46.152L15.091,-39.615C15.582,-39.109 15.852,-38.451 15.852,-37.758L15.852,-17.804C15.852,-17.624 16.004,-17.478 16.191,-17.478L46.546,-17.719C47.262,-17.719 47.956,-17.429 48.454,-16.923L63.881,-1.247C64.476,-0.645 64.649,0.251 64.322,1.034C63.995,1.811 63.239,2.313 62.396,2.313" style="fill:rgb(30,141,193);fill-rule:nonzero;"/>
                    </g>
                </g>
            </g>
        </g>
    </g>
</svg>
