<?xml version="1.0" encoding="UTF-8" standalone="no"?>
<!DOCTYPE svg PUBLIC "-//W3C//DTD SVG 1.1//EN" "http://www.w3.org/Graphics/SVG/1.1/DTD/svg11.dtd">
<svg width="100%" height="100%" viewBox="0 0 240 240" version="1.1" xmlns="http://www.w3.org/2000/svg" xmlns:xlink="http://www.w3.org/1999/xlink" xml:space="preserve" xmlns:serif="http://www.serif.com/" style="fill-rule:evenodd;clip-rule:evenodd;stroke-linejoin:round;stroke-miterlimit:2;">
    <g transform="matrix(1,0,0,1,-1440.61,-778.28)">
        <g id="color" transform="matrix(0.1875,0,0,0.3,1440.61,778.28)">
            <rect x="0" y="0" width="1280" height="800" style="fill:none;"/>
            <clipPath id="_clip1">
                <rect x="0" y="0" width="1280" height="800"/>
            </clipPath>
            <g clip-path="url(#_clip1)">
                <g transform="matrix(16.5375,0,0,10.3359,-1772.63,-6720.29)">
                    <g transform="matrix(-0.19274,-2.32054e-17,4.80502e-17,-0.385736,195.081,837.156)">
                        <path d="M256.035,318.717L256.035,284.013L448.325,284.013C452.623,284.013 456.108,285.754 456.108,287.902L456.108,480.197C456.108,482.345 452.623,484.086 448.325,484.086L256.035,484.086L256.035,453.05C256.035,461.583 277.062,465.833 289.285,459.775L424.811,392.608C432.326,388.883 432.326,382.883 424.811,379.158L289.285,311.992C277.062,305.933 256.035,310.188 256.035,318.717Z" style="fill:rgb(30,141,193);"/>
                    </g>
                    <g transform="matrix(-0.19274,-2.32054e-17,4.80502e-17,-0.385736,233.919,836.932)">
                        <rect x="256.035" y="284.013" width="200.073" height="200.073" style="fill:none;"/>
                    </g>
                    <g transform="matrix(1.63483,1.96829e-16,2.00209e-16,-1.60723,178.659,690.901)">
                        <path d="M-19.898,-6.939L-19.898,-14.506C-19.898,-16.553 -17.419,-17.574 -15.978,-16.12L0,0C0.886,0.894 0.886,2.334 0,3.228L-15.978,19.348C-17.419,20.802 -19.898,19.782 -19.898,17.734L-19.898,10.167C-19.574,10.84 -18.609,11.079 -18.002,10.481L-9.827,2.421C-9.374,1.974 -9.374,1.254 -9.827,0.807L-18.002,-7.253C-18.609,-7.851 -19.574,-7.612 -19.898,-6.939Z" style="fill:rgb(220,96,20);"/>
                    </g>
                    <g transform="matrix(-1.63483,-1.96829e-16,2.00209e-16,-1.60723,113.203,690.901)">
                        <path d="M-19.898,17.734L-19.898,-14.506C-19.898,-16.553 -17.419,-17.574 -15.978,-16.12L0,0C0.886,0.894 0.886,2.334 0,3.228L-15.978,19.348C-17.419,20.802 -19.898,19.782 -19.898,17.734Z" style="fill:none;"/>
                    </g>
                    <g transform="matrix(-0.817589,-9.84356e-17,1.00105e-16,-0.803617,129.649,689.604)">
                        <path d="M0,3.228L-15.978,19.348C-17.419,20.802 -19.898,19.782 -19.898,17.734L-19.898,-14.506C-19.898,-16.553 -17.419,-17.574 -15.978,-16.12L0,0C0.886,0.894 0.886,2.334 0,3.228" style="fill:rgb(30,141,193);fill-rule:nonzero;"/>
                    </g>
                    <g transform="matrix(0.836474,1.00748e-16,1.00144e-16,-0.803617,162.381,689.604)">
                        <path d="M-19.683,18.72L-19.683,-15.492C-19.05,-16.838 -17.163,-17.316 -15.978,-16.12L0,0C0.886,0.894 0.886,2.334 0,3.228L-15.978,19.348C-17.163,20.544 -19.05,20.066 -19.683,18.72Z" style="fill:none;"/>
                    </g>
                </g>
            </g>
        </g>
    </g>
</svg>
