<svg xmlns="http://www.w3.org/2000/svg" xmlns:xlink="http://www.w3.org/1999/xlink" viewBox="0 0 48 48"><defs><style>.cls-1{fill:url(#Degradado_sin_nombre_8);}.cls-2{fill:url(#Degradado_sin_nombre_8-2);}.cls-3{fill:url(#Degradado_sin_nombre_8-3);}.cls-4{fill:url(#Degradado_sin_nombre_8-4);}</style><linearGradient id="Degradado_sin_nombre_8" x1="7.65" y1="29.04" x2="21" y2="29.04" gradientUnits="userSpaceOnUse"><stop offset="0" stop-color="#1a7fb6"/><stop offset="1" stop-color="#0c3d5f"/></linearGradient><linearGradient id="Degradado_sin_nombre_8-2" x1="4" y1="24" x2="44" y2="24" xlink:href="#Degradado_sin_nombre_8"/><linearGradient id="Degradado_sin_nombre_8-3" x1="27.13" y1="29.87" x2="39.63" y2="29.87" xlink:href="#Degradado_sin_nombre_8"/><linearGradient id="Degradado_sin_nombre_8-4" x1="18.6" y1="13.44" x2="28.7" y2="13.44" xlink:href="#Degradado_sin_nombre_8"/></defs><g id="Capa_4" data-name="Capa 4"><path class="cls-1" d="M20.59,30.68a.41.41,0,0,0-.19,0l-.87-3.05a.82.82,0,0,0,.12-.2.79.79,0,0,0-.31-1.1.9.9,0,0,0-1.07.55,1.09,1.09,0,0,0-.07.24L14.85,29.4a.54.54,0,0,0-.15-.09.65.65,0,0,0-.21,0l-1.14-2.35,0-.07a.79.79,0,0,0-.31-1.1A.88.88,0,0,0,12,26.3a1,1,0,0,0-.08.22L9,28.05a.59.59,0,0,0-.17-.1.88.88,0,0,0-1.06.55.78.78,0,0,0,.31,1.09A.89.89,0,0,0,9.13,29a1.42,1.42,0,0,0,.07-.22l3-1.52a.62.62,0,0,0,.16.1.69.69,0,0,0,.32,0l1.1,2.25a1,1,0,0,0-.1.17A.79.79,0,0,0,14,31,.9.9,0,0,0,15,30.41a2.25,2.25,0,0,0,.08-.24l3.34-2.32a.38.38,0,0,0,.15.09.58.58,0,0,0,.19,0l.87,3a.88.88,0,0,0-.12.21.78.78,0,0,0,.31,1.09.88.88,0,0,0,1.07-.54A.78.78,0,0,0,20.59,30.68ZM8.78,28.91a.44.44,0,0,1-.53.27.4.4,0,0,1-.16-.55.45.45,0,0,1,.54-.27A.39.39,0,0,1,8.78,28.91Zm5.89,1.36a.45.45,0,0,1-.53.28A.4.4,0,0,1,14,30a.44.44,0,0,1,.54-.27A.38.38,0,0,1,14.67,30.27Zm4.64-3a.46.46,0,0,1-.54.28.39.39,0,0,1-.15-.55.45.45,0,0,1,.53-.28A.4.4,0,0,1,19.31,27.25Z"/><path class="cls-2" d="M43.1,12.86,43,12.79a1.24,1.24,0,0,0-.6-.21,1.62,1.62,0,0,0-.48-.37l-16.94-9a2,2,0,0,0-1.86,0l-16.94,9a1.62,1.62,0,0,0-.48.37,1.24,1.24,0,0,0-.6.21l-.15.07h0A1.63,1.63,0,0,0,4,14.3V33.61a1.63,1.63,0,0,0,.9,1.44l17.68,9.37a2.07,2.07,0,0,0,.47.18,1.33,1.33,0,0,0,1.9,0,2.07,2.07,0,0,0,.47-.18L43.1,35.05a1.63,1.63,0,0,0,.9-1.44V14.3A1.63,1.63,0,0,0,43.1,12.86ZM24,5.42,39.63,13.7l-5.27,2.63L26,20.51l-2,1-8.14-4L8.37,13.7ZM6.5,33.21V15.42l16.25,8.09V41.83Zm18.75,8.62V23.51l.43-.21L41.5,15.42V33.21Z"/><path class="cls-3" d="M36.36,29.41Zm3.27-1.33-2.5,1.17V25.17l-2.51,1.16V21.67L32,23.05l.13,5-2.5,1.23v3.85l-2.5,1.25v3.65l12.5-6.48Z"/><path class="cls-4" d="M18.73,15.7a1.27,1.27,0,0,0,1.13.65,1.22,1.22,0,0,0,.55-.12L28,12.75a1.14,1.14,0,0,0,.57-1.56,1.3,1.3,0,0,0-1.67-.54l-7.6,3.49A1.13,1.13,0,0,0,18.73,15.7Z"/></g></svg>