<svg xmlns="http://www.w3.org/2000/svg" xmlns:xlink="http://www.w3.org/1999/xlink" viewBox="0 0 48 48"><defs><style>.cls-1{fill:url(#Degradado_sin_nombre_8);}.cls-2{fill:url(#Degradado_sin_nombre_8-2);}.cls-3{fill:url(#Degradado_sin_nombre_8-3);}.cls-4{fill:url(#Degradado_sin_nombre_8-4);}.cls-5{fill:url(#Degradado_sin_nombre_8-5);}</style><linearGradient id="Degradado_sin_nombre_8" x1="6.89" y1="12" x2="14.22" y2="12" gradientUnits="userSpaceOnUse"><stop offset="0" stop-color="#1a7fb6"/><stop offset="1" stop-color="#0c3d5f"/></linearGradient><linearGradient id="Degradado_sin_nombre_8-2" x1="16.67" y1="10.8" x2="26.44" y2="10.8" xlink:href="#Degradado_sin_nombre_8"/><linearGradient id="Degradado_sin_nombre_8-3" x1="2" y1="30" x2="31.33" y2="30" xlink:href="#Degradado_sin_nombre_8"/><linearGradient id="Degradado_sin_nombre_8-4" x1="33.78" y1="30" x2="46" y2="30" xlink:href="#Degradado_sin_nombre_8"/><linearGradient id="Degradado_sin_nombre_8-5" x1="9.33" y1="30" x2="24" y2="30" xlink:href="#Degradado_sin_nombre_8"/></defs><g id="Capa_4" data-name="Capa 4"><path class="cls-1" d="M10.56,15.6A3.6,3.6,0,1,0,6.89,12,3.63,3.63,0,0,0,10.56,15.6Zm0-5.6a2,2,0,1,1-2,2A2,2,0,0,1,10.56,10Z"/><path class="cls-2" d="M21.56,15.6a4.8,4.8,0,1,0-4.89-4.8A4.84,4.84,0,0,0,21.56,15.6Zm0-7.5a2.7,2.7,0,1,1-2.75,2.7A2.73,2.73,0,0,1,21.56,8.1Z"/><path class="cls-3" d="M29.08,18H4.26A2.24,2.24,0,0,0,2,20.22V39.78A2.24,2.24,0,0,0,4.26,42H29.08a2.23,2.23,0,0,0,2.25-2.22V20.22A2.23,2.23,0,0,0,29.08,18Zm-.19,21.6H4.44V20.4H28.89Z"/><path class="cls-4" d="M43.74,18H39.85a3,3,0,0,0-2.69,1.48L34,25.65a2.12,2.12,0,0,0-.24,1V35.1a2.2,2.2,0,0,0,.38,1.23l3,4.44A3.06,3.06,0,0,0,39.72,42h4A2.1,2.1,0,0,0,46,40V20A2.1,2.1,0,0,0,43.74,18Zm-.18,21.6H39.72a.73.73,0,0,1-.51-.16l-3-4.4V26.68l3.12-6.12a.73.73,0,0,1,.51-.16h3.71Z"/><path class="cls-5" d="M10,37a1.49,1.49,0,0,0,1.43.07l11.73-5.76a1.43,1.43,0,0,0,0-2.58L11.46,23A1.49,1.49,0,0,0,10,23a1.41,1.41,0,0,0-.7,1.23v11.5A1.41,1.41,0,0,0,10,37Zm2.46-10.84,7,3.43a.48.48,0,0,1,0,.86l-7,3.43a.49.49,0,0,1-.71-.43V26.57A.49.49,0,0,1,12.49,26.14Z"/></g></svg>