<svg xmlns="http://www.w3.org/2000/svg" xmlns:xlink="http://www.w3.org/1999/xlink" viewBox="0 0 48 48"><defs><style>.cls-1{fill:url(#Degradado_sin_nombre_8);}.cls-2{fill:url(#Degradado_sin_nombre_8-2);}.cls-3{fill:url(#Degradado_sin_nombre_8-3);}</style><linearGradient id="Degradado_sin_nombre_8" x1="2" y1="34" x2="46" y2="34" gradientUnits="userSpaceOnUse"><stop offset="0" stop-color="#1a7fb6"/><stop offset="1" stop-color="#0c3d5f"/></linearGradient><linearGradient id="Degradado_sin_nombre_8-2" x1="4.44" y1="13.16" x2="43.56" y2="13.16" xlink:href="#Degradado_sin_nombre_8"/><linearGradient id="Degradado_sin_nombre_8-3" x1="21.3" y1="13.19" x2="26.59" y2="13.19" xlink:href="#Degradado_sin_nombre_8"/></defs><g id="Capa_4" data-name="Capa 4"><path class="cls-1" d="M43.56,34a2.74,2.74,0,0,0-.64.08l-6.78-6.93a2.82,2.82,0,0,0,.08-.65,2.44,2.44,0,1,0-4.88,0,2.69,2.69,0,0,0,.09.7l-6.87,9.37a2.36,2.36,0,0,0-1.25,0l-6.65-4.86c0-.08,0-.16,0-.24a2.45,2.45,0,1,0-4.89,0,2.82,2.82,0,0,0,.08.65L5.07,39.09A2.18,2.18,0,0,0,4.44,39a2.5,2.5,0,0,0,0,5,2.48,2.48,0,0,0,2.45-2.5,2.37,2.37,0,0,0-.09-.65l6.79-6.93a2.59,2.59,0,0,0,.63.08,2.41,2.41,0,0,0,1-.22l6.39,4.66a2.6,2.6,0,0,0-.06.56,2.45,2.45,0,1,0,4.89,0,2.69,2.69,0,0,0-.1-.7l6.87-9.37a2.6,2.6,0,0,0,.56.07,2.18,2.18,0,0,0,.63-.09l6.79,6.94a2.37,2.37,0,0,0-.09.65A2.45,2.45,0,1,0,43.56,34ZM4.44,42.75A1.25,1.25,0,1,1,5.67,41.5,1.24,1.24,0,0,1,4.44,42.75ZM24,40.25A1.25,1.25,0,1,1,25.22,39,1.24,1.24,0,0,1,24,40.25Zm9.78-12.5A1.25,1.25,0,1,1,35,26.5,1.24,1.24,0,0,1,33.78,27.75Z"/><path class="cls-2" d="M24,22.31a26.67,26.67,0,0,0,19.18-8.13,1.34,1.34,0,0,0,.38-.93v-.19a1.34,1.34,0,0,0-.38-.93,26.69,26.69,0,0,0-38.36,0,1.34,1.34,0,0,0-.38.93v.19a1.34,1.34,0,0,0,.38.93A26.67,26.67,0,0,0,24,22.31Zm16.49-9.15A24.14,24.14,0,0,1,27.63,19.4a7.34,7.34,0,0,0,0-12.49A24.08,24.08,0,0,1,40.49,13.16ZM24,8.53a4.63,4.63,0,1,1-4.52,4.63A4.58,4.58,0,0,1,24,8.53ZM20.37,6.91a7.35,7.35,0,0,0,0,12.49A24.17,24.17,0,0,1,7.51,13.16,24.12,24.12,0,0,1,20.37,6.91Z"/><path class="cls-3" d="M23.94,15.9a2.68,2.68,0,0,0,2.65-2.71,2.76,2.76,0,0,0-.12-.82,1.21,1.21,0,0,1-.65.19,1.24,1.24,0,0,1-1.22-1.25,1.27,1.27,0,0,1,.2-.69,2.72,2.72,0,0,0-.86-.14,2.71,2.71,0,0,0,0,5.42Z"/></g></svg>