<svg xmlns="http://www.w3.org/2000/svg" xmlns:xlink="http://www.w3.org/1999/xlink" viewBox="0 0 48 48"><defs><style>.cls-1{fill:url(#Degradado_sin_nombre_8);}.cls-2{fill:url(#Degradado_sin_nombre_8-2);}.cls-3{fill:url(#Degradado_sin_nombre_8-3);}.cls-4{fill:url(#Degradado_sin_nombre_8-4);}.cls-5{fill:url(#Degradado_sin_nombre_8-5);}.cls-6{fill:url(#Degradado_sin_nombre_8-6);}.cls-7{fill:url(#Degradado_sin_nombre_8-7);}.cls-8{fill:url(#Degradado_sin_nombre_8-8);}.cls-9{fill:url(#Degradado_sin_nombre_8-9);}</style><linearGradient id="Degradado_sin_nombre_8" x1="36" y1="40.9" x2="45.78" y2="40.9" gradientUnits="userSpaceOnUse"><stop offset="0" stop-color="#1a7fb6"/><stop offset="1" stop-color="#0c3d5f"/></linearGradient><linearGradient id="Degradado_sin_nombre_8-2" x1="38.61" y1="31.97" x2="46" y2="31.97" xlink:href="#Degradado_sin_nombre_8"/><linearGradient id="Degradado_sin_nombre_8-3" x1="19.11" y1="8.11" x2="26.44" y2="8.11" xlink:href="#Degradado_sin_nombre_8"/><linearGradient id="Degradado_sin_nombre_8-4" x1="16.67" y1="13" x2="26.44" y2="13" xlink:href="#Degradado_sin_nombre_8"/><linearGradient id="Degradado_sin_nombre_8-5" x1="6.89" y1="17.89" x2="26.44" y2="17.89" xlink:href="#Degradado_sin_nombre_8"/><linearGradient id="Degradado_sin_nombre_8-6" x1="6.89" y1="22.78" x2="26.44" y2="22.78" xlink:href="#Degradado_sin_nombre_8"/><linearGradient id="Degradado_sin_nombre_8-7" x1="6.89" y1="32.56" x2="21.56" y2="32.56" xlink:href="#Degradado_sin_nombre_8"/><linearGradient id="Degradado_sin_nombre_8-8" x1="6.89" y1="37.36" x2="14.22" y2="37.36" xlink:href="#Degradado_sin_nombre_8"/><linearGradient id="Degradado_sin_nombre_8-9" x1="2" y1="24" x2="46" y2="24" xlink:href="#Degradado_sin_nombre_8"/></defs><g id="Capa_4" data-name="Capa 4"><path class="cls-1" d="M45.58,39.24l-1.07-.13a3.18,3.18,0,0,0-.26-.44l.42-1a4.76,4.76,0,0,0-.55-.55l-1,.42a4.91,4.91,0,0,0-.44-.25l-.14-1.08a4.59,4.59,0,0,0-.75-.2l-.65.86h-.51L40,36a4.76,4.76,0,0,0-.74.2l-.14,1.08a3.83,3.83,0,0,0-.44.25l-1-.42a5.71,5.71,0,0,0-.55.55l.42,1a3.14,3.14,0,0,0-.25.44l-1.08.13A5.89,5.89,0,0,0,36,40l.87.66a2,2,0,0,0,0,.25,2.09,2.09,0,0,0,0,.25l-.87.66a6.93,6.93,0,0,0,.2.75l1.08.13a3.83,3.83,0,0,0,.25.44l-.42,1a5.71,5.71,0,0,0,.55.55l1-.42a3.83,3.83,0,0,0,.44.25l.14,1.08a6.21,6.21,0,0,0,.74.2l.66-.87h.51l.65.87a5.89,5.89,0,0,0,.75-.2l.14-1.08a4.91,4.91,0,0,0,.44-.25l1,.42a4.76,4.76,0,0,0,.55-.55l-.42-1a3.91,3.91,0,0,0,.26-.44l1.07-.13a5.2,5.2,0,0,0,.2-.75l-.86-.66c0-.08,0-.17,0-.25s0-.17,0-.25l.86-.66A4.59,4.59,0,0,0,45.58,39.24Zm-4.69,4.43a2.77,2.77,0,1,1,2.77-2.77A2.77,2.77,0,0,1,40.89,43.67Z"/><path class="cls-2" d="M45.33,32.11v-.19l.67-.47a5.05,5.05,0,0,0-.12-.56l-.81-.14a3.59,3.59,0,0,0-.17-.34l.35-.73a2.72,2.72,0,0,0-.4-.43l-.76.28a3.53,3.53,0,0,0-.32-.21l-.07-.81a3.2,3.2,0,0,0-.55-.17l-.52.62h-.38l-.46-.67a3.61,3.61,0,0,0-.57.12l-.14.8a3.47,3.47,0,0,0-.33.18L40,29a5.22,5.22,0,0,0-.43.39l.28.77a3.45,3.45,0,0,0-.2.32l-.81.06a5.22,5.22,0,0,0-.18.56l.63.52c0,.06,0,.12,0,.19V32l-.67.46a3.9,3.9,0,0,0,.13.57l.8.13a2.21,2.21,0,0,0,.18.34l-.35.74a3.88,3.88,0,0,0,.39.42l.76-.28a2.2,2.2,0,0,0,.32.21l.07.81a3.5,3.5,0,0,0,.55.17L42,35h.38l.46.66a2.62,2.62,0,0,0,.57-.12l.14-.8a2.21,2.21,0,0,0,.34-.18l.73.35a4,4,0,0,0,.43-.39l-.28-.76c.07-.11.14-.21.2-.32l.81-.07a2.72,2.72,0,0,0,.18-.55l-.63-.52A1.37,1.37,0,0,0,45.33,32.11Zm-1.14-.06a1.88,1.88,0,1,1-1.8-2A1.89,1.89,0,0,1,44.19,32.05Z"/><rect class="cls-3" x="19.11" y="6.89" width="7.33" height="2.44"/><rect class="cls-4" x="16.67" y="11.78" width="9.78" height="2.44"/><rect class="cls-5" x="6.89" y="16.67" width="19.56" height="2.44"/><rect class="cls-6" x="6.89" y="21.56" width="19.56" height="2.44"/><rect class="cls-7" x="6.89" y="31.33" width="14.67" height="2.44"/><rect class="cls-8" x="6.89" y="36.14" width="7.33" height="2.44"/><path class="cls-9" d="M42.77,16l2.94-4.43a1.69,1.69,0,0,0-.35-2.27L42.69,7.23a1.64,1.64,0,0,0-1.25-.32,1.6,1.6,0,0,0-1.1.72l-2.45,3.68h0l-6.56,9.86V4a2,2,0,0,0-1.95-2H13.32a1.94,1.94,0,0,0-1.43.62L11.53,3a2.11,2.11,0,0,0-.23.19l0,0-8.8,9.34A2,2,0,0,0,2,13.9V44a2,2,0,0,0,2,2H29.38a2,2,0,0,0,1.95-2V33.22L42.77,16Zm-31-9.72v5.48H6.63ZM28.89,43.56H4.44V14.22h7.83a2,2,0,0,0,2-2V4.44H28.89V24.85l-2.45,3.67V26.44H6.89v2.45H26.2l-1.88,2.82a1.64,1.64,0,0,0-.2.5,1.46,1.46,0,0,0-.39.6L21.64,39a1.63,1.63,0,0,0,2.61,1.75l4.64-4Zm-.55-10.25-1.41-1.1L38.46,14.86,39.87,16ZM40.78,11.37l1.11-1.66,1.41,1.1-1.11,1.66Z"/></g></svg>