<svg xmlns="http://www.w3.org/2000/svg" xmlns:xlink="http://www.w3.org/1999/xlink" viewBox="0 0 48 48"><defs><style>.cls-1{fill:url(#Degradado_sin_nombre_8);}.cls-2{fill:url(#Degradado_sin_nombre_8-2);}</style><linearGradient id="Degradado_sin_nombre_8" x1="2" y1="24" x2="46" y2="24" gradientUnits="userSpaceOnUse"><stop offset="0" stop-color="#1a7fb6"/><stop offset="1" stop-color="#0c3d5f"/></linearGradient><linearGradient id="Degradado_sin_nombre_8-2" x1="9.33" y1="17.51" x2="38.67" y2="17.51" xlink:href="#Degradado_sin_nombre_8"/></defs><g id="Capa_4" data-name="Capa 4"><path class="cls-1" d="M43.44,2H4.56A2.57,2.57,0,0,0,2,4.57V31.14a2.57,2.57,0,0,0,2.56,2.57h17v9.83H9.33V46H36.22V43.54H24V33.71H43.44A2.57,2.57,0,0,0,46,31.14V4.57A2.57,2.57,0,0,0,43.44,2Zm.12,29.14a.12.12,0,0,1-.12.12H4.56a.12.12,0,0,1-.12-.12V4.57a.11.11,0,0,1,.12-.11H43.44a.11.11,0,0,1,.12.11Z"/><path class="cls-2" d="M37.21,11.12h-4.3V7.9a1.29,1.29,0,0,0-.13-1,1.27,1.27,0,0,0-1.22-.61A11.38,11.38,0,0,0,24,8.55a11.38,11.38,0,0,0-7.56-2.29A1.28,1.28,0,0,0,15.09,7.9v3.22h-4.3a1.47,1.47,0,0,0-1.46,1.46V27.33a1.44,1.44,0,0,0,.51,1.1,1.4,1.4,0,0,0,1.17.3,34.67,34.67,0,0,1,12.19-.06l.09,0,.22.09h.23l.26,0,.26,0h.23l.22-.09.09,0A34.67,34.67,0,0,1,37,28.73a1.4,1.4,0,0,0,1.17-.3,1.44,1.44,0,0,0,.51-1.1V12.58A1.46,1.46,0,0,0,37.21,11.12ZM30.46,23.75c-1.45.52-2.91,1.13-4.33,1.72l-.91.38V10.69a9.75,9.75,0,0,1,5.24-2ZM17.54,8.67a9.75,9.75,0,0,1,5.24,2V25.85l-.91-.38c-1.42-.59-2.88-1.2-4.33-1.72Zm-5.76,4.91h3.31V24.27a1.63,1.63,0,0,0-.06.45,1.27,1.27,0,0,0,.62,1,35.93,35.93,0,0,0-3.87.37ZM36.22,26.11a35.93,35.93,0,0,0-3.87-.37,1.27,1.27,0,0,0,.62-1,1.63,1.63,0,0,0-.06-.45V13.58h3.31Z"/></g></svg>