<svg xmlns="http://www.w3.org/2000/svg" xmlns:xlink="http://www.w3.org/1999/xlink" viewBox="0 0 48 48"><defs><style>.cls-1{fill:url(#Degradado_sin_nombre_8);}.cls-2{fill:url(#Degradado_sin_nombre_8-2);}.cls-3{fill:url(#Degradado_sin_nombre_8-3);}.cls-4{fill:url(#Degradado_sin_nombre_8-4);}.cls-5{fill:url(#Degradado_sin_nombre_8-5);}</style><linearGradient id="Degradado_sin_nombre_8" x1="2" y1="24" x2="46" y2="24" gradientUnits="userSpaceOnUse"><stop offset="0" stop-color="#1a7fb6"/><stop offset="1" stop-color="#0c3d5f"/></linearGradient><linearGradient id="Degradado_sin_nombre_8-2" x1="19.47" y1="11.04" x2="24.16" y2="11.04" xlink:href="#Degradado_sin_nombre_8"/><linearGradient id="Degradado_sin_nombre_8-3" x1="32.73" y1="11.64" x2="37.42" y2="11.64" xlink:href="#Degradado_sin_nombre_8"/><linearGradient id="Degradado_sin_nombre_8-4" x1="17.07" y1="20.08" x2="39.97" y2="20.08" xlink:href="#Degradado_sin_nombre_8"/><linearGradient id="Degradado_sin_nombre_8-5" x1="26.5" y1="8.83" x2="30.41" y2="8.83" xlink:href="#Degradado_sin_nombre_8"/></defs><g id="Capa_4" data-name="Capa 4"><path class="cls-1" d="M29.12,2A16.87,16.87,0,0,0,16.37,29.92l-14,14a1.21,1.21,0,0,0,0,1.71,1.22,1.22,0,0,0,1.71,0l14-14A16.87,16.87,0,1,0,29.12,2Zm0,31.34A14.47,14.47,0,1,1,43.59,18.88,14.48,14.48,0,0,1,29.12,33.34Z"/><path class="cls-2" d="M21.81,13.46A2.42,2.42,0,1,0,19.47,11,2.38,2.38,0,0,0,21.81,13.46Z"/><path class="cls-3" d="M35.07,14.07a2.43,2.43,0,1,0-2.34-2.43A2.39,2.39,0,0,0,35.07,14.07Z"/><path class="cls-4" d="M37.75,15.26h-5V13.61a2,2,0,0,0-2.06-2H26.36a2,2,0,0,0-2.06,2v1.05h-5a2.17,2.17,0,0,0-2.22,2.11V24.6a2,2,0,0,0,.9,1.62,2.69,2.69,0,0,0,1.51.49V24.3h0V17.07H24.3v7.52h0v2.11a2.66,2.66,0,0,0,1.51-.49,2,2,0,0,0,.9-1.62V21.89h0V19.48h0V14.05h3.62v6.07h0v6.16a2.39,2.39,0,0,0,2.41,2.23V26.11h0V17.67h4.82v8.44h0v2.41A2.39,2.39,0,0,0,40,26.29v-8.8A2.23,2.23,0,0,0,37.75,15.26Z"/><path class="cls-5" d="M28.46,10.85a2,2,0,1,0-2-2A2,2,0,0,0,28.46,10.85Z"/></g></svg>