<?xml version="1.0" encoding="UTF-8" standalone="no"?>
<!DOCTYPE svg PUBLIC "-//W3C//DTD SVG 1.1//EN" "http://www.w3.org/Graphics/SVG/1.1/DTD/svg11.dtd">
<svg width="100%" height="100%" viewBox="0 0 3000 3000" version="1.1" xmlns="http://www.w3.org/2000/svg" xmlns:xlink="http://www.w3.org/1999/xlink" xml:space="preserve" xmlns:serif="http://www.serif.com/" style="fill-rule:evenodd;clip-rule:evenodd;stroke-linejoin:round;stroke-miterlimit:2;">
    <g transform="matrix(1,0,0,1,-3545.97,0)">
        <g id="icon_iinfo" transform="matrix(0.639906,0,0,0.684444,1138.17,153.513)">
            <rect x="3762.74" y="-224.289" width="4688.19" height="4383.12" style="fill:none;"/>
            <g>
                <g transform="matrix(1.56273,0,0,1.44853,3822.34,-277.526)">
                    <path d="M2561.96,564.001L2561.96,2512.87C2561.96,2572.34 2514.36,2620.62 2455.72,2620.62L543.414,2620.62C484.779,2620.62 437.174,2572.34 437.174,2512.87L437.174,564.001C437.174,504.531 484.779,456.249 543.414,456.249L2455.72,456.249C2514.36,456.249 2561.96,504.531 2561.96,564.001ZM2443.53,639.175C2443.53,612.805 2422.42,591.396 2396.42,591.396L606.328,591.396C580.328,591.396 559.22,612.805 559.22,639.175L559.22,2455.54C559.22,2481.91 580.328,2503.32 606.328,2503.32L2396.42,2503.32C2422.42,2503.32 2443.53,2481.91 2443.53,2455.54L2443.53,639.175Z" style="fill:url(#_Linear1);"/>
                </g>
                <g transform="matrix(1.56273,0,0,1.46104,1058.3,-296.768)">
                    <path d="M3355.25,2098.76L3443.29,2098.76L3443.29,2198.76L3093.29,2198.76L3093.29,2098.76L3181.34,2098.76L3181.34,1232.95L3122.32,1232.95L3122.32,1132.95L3355.25,1132.95L3355.25,2098.76ZM3268.29,878.108C3323.49,878.108 3368.29,922.917 3368.29,978.108C3368.29,1033.3 3323.49,1078.11 3268.29,1078.11C3213.1,1078.11 3168.29,1033.3 3168.29,978.108C3168.29,922.917 3213.1,878.108 3268.29,878.108Z" style="fill:url(#_Linear2);"/>
                </g>
            </g>
        </g>
    </g>
    <defs>
        <linearGradient id="_Linear1" x1="0" y1="0" x2="1" y2="0" gradientUnits="userSpaceOnUse" gradientTransform="matrix(2124.78,0,0,-2164.38,437.174,1538.44)"><stop offset="0" style="stop-color:rgb(25,125,168);stop-opacity:1"/><stop offset="0" style="stop-color:rgb(25,125,168);stop-opacity:1"/><stop offset="1" style="stop-color:rgb(3,64,98);stop-opacity:1"/></linearGradient>
        <linearGradient id="_Linear2" x1="0" y1="0" x2="1" y2="0" gradientUnits="userSpaceOnUse" gradientTransform="matrix(350,0,0,-1320.66,3093.29,1538.44)"><stop offset="0" style="stop-color:rgb(25,125,168);stop-opacity:1"/><stop offset="0" style="stop-color:rgb(25,125,168);stop-opacity:1"/><stop offset="1" style="stop-color:rgb(3,64,98);stop-opacity:1"/></linearGradient>
    </defs>
</svg>
