<svg xmlns="http://www.w3.org/2000/svg" xmlns:xlink="http://www.w3.org/1999/xlink" viewBox="0 0 44 44"><defs><style>.cls-1{fill:url(#Degradado_sin_nombre_8);}</style><linearGradient id="Degradado_sin_nombre_8" x1="2" y1="22" x2="42" y2="22" gradientUnits="userSpaceOnUse"><stop offset="0" stop-color="#1a7fb6"/><stop offset="1" stop-color="#0c3d5f"/></linearGradient></defs><g id="Capa_4" data-name="Capa 4"><path class="cls-1" d="M40.91,2h-10V4.24h6.88a.18.18,0,0,1,.13.31L11.66,30.77a.39.39,0,0,1-.25.1h-2a.18.18,0,0,1-.18-.18V13.31a.18.18,0,0,1,.18-.18h3.71V2h-10A1.09,1.09,0,0,0,2,3.09v10H6.26a.18.18,0,0,1,.18.18V30.69a.18.18,0,0,1-.18.18H2v10A1.09,1.09,0,0,0,3.09,42h10V38.29a.18.18,0,0,1,.18-.18H30.69a.18.18,0,0,1,.18.18V42h10A1.09,1.09,0,0,0,42,40.91v-10H30.87v4.26a.18.18,0,0,1-.18.18H13.31a.18.18,0,0,1-.18-.18V32.59a.39.39,0,0,1,.1-.25L39.45,6.12a.18.18,0,0,1,.31.13v6.88H42v-10A1.09,1.09,0,0,0,40.91,2ZM4.36,7.42A3.18,3.18,0,1,1,7.54,10.6,3.17,3.17,0,0,1,4.36,7.42ZM7.54,39.65a3.18,3.18,0,1,1,3.18-3.18A3.18,3.18,0,0,1,7.54,39.65Zm28.89-6.36a3.18,3.18,0,1,1-3.18,3.18A3.18,3.18,0,0,1,36.43,33.29Z"/></g></svg>