<?xml version="1.0" encoding="UTF-8" standalone="no"?>
<!DOCTYPE svg PUBLIC "-//W3C//DTD SVG 1.1//EN" "http://www.w3.org/Graphics/SVG/1.1/DTD/svg11.dtd">
<svg width="100%" height="100%" viewBox="0 0 96 96" version="1.1" xmlns="http://www.w3.org/2000/svg" xmlns:xlink="http://www.w3.org/1999/xlink" xml:space="preserve" xmlns:serif="http://www.serif.com/" style="fill-rule:evenodd;clip-rule:evenodd;stroke-linejoin:round;stroke-miterlimit:2;">
    <g transform="matrix(2,0,0,2,0,0)">
        <g transform="matrix(0.0132362,0,0,0.0141574,-56.8569,-3.6937)">
            <g id="Capa_4">
                <g>
                    <g transform="matrix(1.06071,0,0,1.06071,-368.773,-130.569)">
                        <g transform="matrix(0,5.72693,6.12552,0,6606.04,2907.92)">
                            <rect x="-81.496" y="-95.669" width="162.992" height="28.346" style="fill:url(#_Linear1);"/>
                        </g>
                        <g transform="matrix(6.12552,0,0,5.72693,7488.02,583.418)">
                            <path d="M0,351.638L-450.961,351.638C-467.33,351.638 -480.598,338.368 -480.598,322.001L-480.598,15.465C-480.598,-0.904 -467.33,-14.173 -450.961,-14.173L0,-14.173C16.369,-14.173 29.637,-0.904 29.637,15.465L29.637,322.001C29.637,338.368 16.369,351.638 0,351.638ZM0,323.292C0.713,323.292 1.291,322.714 1.291,322.001L1.291,15.465C1.291,14.752 0.713,14.173 0,14.173L-450.961,14.173C-451.674,14.173 -452.252,14.752 -452.252,15.465L-452.252,322.001C-452.252,322.714 -451.674,323.292 -450.961,323.292L0,323.292Z" style="fill:url(#_Linear2);"/>
                        </g>
                        <g transform="matrix(6.12552,0,0,5.72693,5151.83,3351.12)">
                            <rect x="-0" y="-14.173" width="311.811" height="28.346" style="fill:rgb(14,96,134);"/>
                        </g>
                    </g>
                    <g transform="matrix(12.4415,0,0,1.26619,4821.05,768.889)">
                        <path d="M118.119,11.956L118.119,107.608C118.119,114.206 117.535,119.564 116.817,119.564L1.302,119.564C0.583,119.564 0,114.206 0,107.608L0,11.956C0,5.357 0.583,0 1.302,0L116.817,0C117.535,0 118.119,5.357 118.119,11.956Z" style="fill:rgb(13,93,131);"/>
                    </g>
                    <g transform="matrix(13.2302,0,0,1.26619,4821.05,2112.46)">
                        <path d="M118.119,11.956L118.119,107.608C118.119,114.206 117.57,119.564 116.895,119.564L1.224,119.564C0.548,119.564 0,114.206 0,107.608L0,11.956C0,5.357 0.548,0 1.224,0L116.895,0C117.57,0 118.119,5.357 118.119,11.956Z" style="fill:rgb(13,93,131);"/>
                    </g>
                    <g transform="matrix(9.47614,0,0,1.26619,4821.05,1080.26)">
                        <path d="M118.119,11.956L118.119,107.608C118.119,114.206 117.353,119.564 116.41,119.564L1.709,119.564C0.766,119.564 0,114.206 0,107.608L0,11.956C0,5.357 0.766,0 1.709,0L116.41,0C117.353,0 118.119,5.357 118.119,11.956Z" style="fill:url(#_Linear3);"/>
                    </g>
                    <g transform="matrix(10.8603,0,0,1.26619,4821.05,1768.39)">
                        <path d="M118.119,11.956L118.119,107.608C118.119,114.206 117.45,119.564 116.628,119.564L1.491,119.564C0.668,119.564 0,114.206 0,107.608L0,11.956C0,5.357 0.668,0 1.491,0L116.628,0C117.45,0 118.119,5.357 118.119,11.956Z" style="fill:rgb(13,93,131);"/>
                    </g>
                    <g transform="matrix(8.10087,0,0,1.26619,4821.05,1414)">
                        <path d="M118.119,11.956L118.119,107.608C118.119,114.206 117.223,119.564 116.12,119.564L1.999,119.564C0.896,119.564 0,114.206 0,107.608L0,11.956C0,5.357 0.896,0 1.999,0L116.12,0C117.223,0 118.119,5.357 118.119,11.956Z" style="fill:rgb(13,93,131);"/>
                    </g>
                    <g transform="matrix(2.31923,0,0,2.54042,-5571.35,2615.65)">
                        <path d="M5293.58,-642.306C5285.95,-642.306 5279.62,-643.558 5274.58,-646.061C5269.54,-648.565 5265.68,-652.916 5262.99,-659.116C5260.3,-665.316 5258.95,-673.82 5258.95,-684.63C5258.95,-695.439 5260.3,-703.944 5262.99,-710.143C5265.68,-716.343 5269.54,-720.695 5274.58,-723.198C5279.62,-725.702 5285.95,-726.954 5293.58,-726.954C5301.21,-726.954 5307.55,-725.682 5312.59,-723.139C5317.62,-720.595 5321.49,-716.244 5324.18,-710.084C5326.87,-703.924 5328.21,-695.439 5328.21,-684.63C5328.21,-673.82 5326.87,-665.336 5324.18,-659.176C5321.49,-653.016 5317.62,-648.664 5312.59,-646.121C5307.55,-643.577 5301.21,-642.306 5293.58,-642.306ZM5293.58,-655.659C5297.4,-655.659 5300.31,-656.513 5302.32,-658.222C5304.32,-659.931 5305.69,-662.534 5306.42,-666.031C5307.16,-669.528 5307.52,-674.337 5307.52,-680.457L5307.52,-688.803C5307.52,-694.923 5307.16,-699.731 5306.42,-703.229C5305.69,-706.726 5304.32,-709.329 5302.32,-711.038C5300.31,-712.746 5297.4,-713.601 5293.58,-713.601C5289.77,-713.601 5286.86,-712.746 5284.85,-711.038C5282.85,-709.329 5281.48,-706.726 5280.74,-703.229C5280.01,-699.731 5279.64,-694.923 5279.64,-688.803L5279.64,-680.457C5279.64,-674.337 5280.01,-669.528 5280.74,-666.031C5281.48,-662.534 5282.85,-659.931 5284.85,-658.222C5286.86,-656.513 5289.77,-655.659 5293.58,-655.659Z" style="fill:url(#_Linear4);fill-rule:nonzero;"/>
                    </g>
                    <g transform="matrix(2.31923,0,0,2.54042,-5571.35,3228.94)">
                        <path d="M5293.58,-642.306C5285.95,-642.306 5279.62,-643.558 5274.58,-646.061C5269.54,-648.565 5265.68,-652.916 5262.99,-659.116C5260.3,-665.316 5258.95,-673.82 5258.95,-684.63C5258.95,-695.439 5260.3,-703.944 5262.99,-710.143C5265.68,-716.343 5269.54,-720.695 5274.58,-723.198C5279.62,-725.702 5285.95,-726.954 5293.58,-726.954C5301.21,-726.954 5307.55,-725.682 5312.59,-723.139C5317.62,-720.595 5321.49,-716.244 5324.18,-710.084C5326.87,-703.924 5328.21,-695.439 5328.21,-684.63C5328.21,-673.82 5326.87,-665.336 5324.18,-659.176C5321.49,-653.016 5317.62,-648.664 5312.59,-646.121C5307.55,-643.577 5301.21,-642.306 5293.58,-642.306ZM5293.58,-655.659C5297.4,-655.659 5300.31,-656.513 5302.32,-658.222C5304.32,-659.931 5305.69,-662.534 5306.42,-666.031C5307.16,-669.528 5307.52,-674.337 5307.52,-680.457L5307.52,-688.803C5307.52,-694.923 5307.16,-699.731 5306.42,-703.229C5305.69,-706.726 5304.32,-709.329 5302.32,-711.038C5300.31,-712.746 5297.4,-713.601 5293.58,-713.601C5289.77,-713.601 5286.86,-712.746 5284.85,-711.038C5282.85,-709.329 5281.48,-706.726 5280.74,-703.229C5280.01,-699.731 5279.64,-694.923 5279.64,-688.803L5279.64,-680.457C5279.64,-674.337 5280.01,-669.528 5280.74,-666.031C5281.48,-662.534 5282.85,-659.931 5284.85,-658.222C5286.86,-656.513 5289.77,-655.659 5293.58,-655.659Z" style="fill:url(#_Linear5);fill-rule:nonzero;"/>
                    </g>
                    <g transform="matrix(2.31923,0,0,2.54042,-5236.61,3228.94)">
                        <path d="M5293.58,-642.306C5285.95,-642.306 5279.62,-643.558 5274.58,-646.061C5269.54,-648.565 5265.68,-652.916 5262.99,-659.116C5260.3,-665.316 5258.95,-673.82 5258.95,-684.63C5258.95,-695.439 5260.3,-703.944 5262.99,-710.143C5265.68,-716.343 5269.54,-720.695 5274.58,-723.198C5279.62,-725.702 5285.95,-726.954 5293.58,-726.954C5301.21,-726.954 5307.55,-725.682 5312.59,-723.139C5317.62,-720.595 5321.49,-716.244 5324.18,-710.084C5326.87,-703.924 5328.21,-695.439 5328.21,-684.63C5328.21,-673.82 5326.87,-665.336 5324.18,-659.176C5321.49,-653.016 5317.62,-648.664 5312.59,-646.121C5307.55,-643.577 5301.21,-642.306 5293.58,-642.306ZM5293.58,-655.659C5297.4,-655.659 5300.31,-656.513 5302.32,-658.222C5304.32,-659.931 5305.69,-662.534 5306.42,-666.031C5307.16,-669.528 5307.52,-674.337 5307.52,-680.457L5307.52,-688.803C5307.52,-694.923 5307.16,-699.731 5306.42,-703.229C5305.69,-706.726 5304.32,-709.329 5302.32,-711.038C5300.31,-712.746 5297.4,-713.601 5293.58,-713.601C5289.77,-713.601 5286.86,-712.746 5284.85,-711.038C5282.85,-709.329 5281.48,-706.726 5280.74,-703.229C5280.01,-699.731 5279.64,-694.923 5279.64,-688.803L5279.64,-680.457C5279.64,-674.337 5280.01,-669.528 5280.74,-666.031C5281.48,-662.534 5282.85,-659.931 5284.85,-658.222C5286.86,-656.513 5289.77,-655.659 5293.58,-655.659Z" style="fill:url(#_Linear6);fill-rule:nonzero;"/>
                    </g>
                    <g transform="matrix(2.31923,0,0,2.54042,-5236.61,3886.05)">
                        <path d="M5293.58,-642.306C5285.95,-642.306 5279.62,-643.558 5274.58,-646.061C5269.54,-648.565 5265.68,-652.916 5262.99,-659.116C5260.3,-665.316 5258.95,-673.82 5258.95,-684.63C5258.95,-695.439 5260.3,-703.944 5262.99,-710.143C5265.68,-716.343 5269.54,-720.695 5274.58,-723.198C5279.62,-725.702 5285.95,-726.954 5293.58,-726.954C5301.21,-726.954 5307.55,-725.682 5312.59,-723.139C5317.62,-720.595 5321.49,-716.244 5324.18,-710.084C5326.87,-703.924 5328.21,-695.439 5328.21,-684.63C5328.21,-673.82 5326.87,-665.336 5324.18,-659.176C5321.49,-653.016 5317.62,-648.664 5312.59,-646.121C5307.55,-643.577 5301.21,-642.306 5293.58,-642.306ZM5293.58,-655.659C5297.4,-655.659 5300.31,-656.513 5302.32,-658.222C5304.32,-659.931 5305.69,-662.534 5306.42,-666.031C5307.16,-669.528 5307.52,-674.337 5307.52,-680.457L5307.52,-688.803C5307.52,-694.923 5307.16,-699.731 5306.42,-703.229C5305.69,-706.726 5304.32,-709.329 5302.32,-711.038C5300.31,-712.746 5297.4,-713.601 5293.58,-713.601C5289.77,-713.601 5286.86,-712.746 5284.85,-711.038C5282.85,-709.329 5281.48,-706.726 5280.74,-703.229C5280.01,-699.731 5279.64,-694.923 5279.64,-688.803L5279.64,-680.457C5279.64,-674.337 5280.01,-669.528 5280.74,-666.031C5281.48,-662.534 5282.85,-659.931 5284.85,-658.222C5286.86,-656.513 5289.77,-655.659 5293.58,-655.659Z" style="fill:url(#_Linear7);fill-rule:nonzero;"/>
                    </g>
                    <g transform="matrix(1.96354,0,0,2.5173,-3522.32,2599.82)">
                        <path d="M5346.85,-657.089L5370.48,-657.089L5370.48,-705.732L5346.7,-705.732L5346.7,-715.866C5351.11,-716.264 5356.51,-717.376 5362.92,-719.204C5369.33,-721.032 5375.07,-723.139 5380.16,-725.523L5390.58,-725.523L5390.58,-657.089L5412.15,-657.089L5412.15,-643.736L5346.85,-643.736L5346.85,-657.089Z" style="fill:url(#_Linear8);fill-rule:nonzero;"/>
                    </g>
                    <g transform="matrix(1.96354,0,0,2.5173,-3229.55,2599.82)">
                        <path d="M5346.85,-657.089L5370.48,-657.089L5370.48,-705.732L5346.7,-705.732L5346.7,-715.866C5351.11,-716.264 5356.51,-717.376 5362.92,-719.204C5369.33,-721.032 5375.07,-723.139 5380.16,-725.523L5390.58,-725.523L5390.58,-657.089L5412.15,-657.089L5412.15,-643.736L5346.85,-643.736L5346.85,-657.089Z" style="fill:url(#_Linear9);fill-rule:nonzero;"/>
                    </g>
                    <g transform="matrix(1.96354,0,0,2.5173,-3229.55,3213.11)">
                        <path d="M5346.85,-657.089L5370.48,-657.089L5370.48,-705.732L5346.7,-705.732L5346.7,-715.866C5351.11,-716.264 5356.51,-717.376 5362.92,-719.204C5369.33,-721.032 5375.07,-723.139 5380.16,-725.523L5390.58,-725.523L5390.58,-657.089L5412.15,-657.089L5412.15,-643.736L5346.85,-643.736L5346.85,-657.089Z" style="fill:url(#_Linear10);fill-rule:nonzero;"/>
                    </g>
                    <g transform="matrix(1.96354,0,0,2.5173,-3229.55,3865.64)">
                        <path d="M5346.85,-657.089L5370.48,-657.089L5370.48,-705.732L5346.7,-705.732L5346.7,-715.866C5351.11,-716.264 5356.51,-717.376 5362.92,-719.204C5369.33,-721.032 5375.07,-723.139 5380.16,-725.523L5390.58,-725.523L5390.58,-657.089L5412.15,-657.089L5412.15,-643.736L5346.85,-643.736L5346.85,-657.089Z" style="fill:url(#_Linear11);fill-rule:nonzero;"/>
                    </g>
                </g>
            </g>
        </g>
    </g>
    <defs>
        <linearGradient id="_Linear1" x1="0" y1="0" x2="1" y2="0" gradientUnits="userSpaceOnUse" gradientTransform="matrix(162.992,0,0,-28.346,-81.496,-81.496)"><stop offset="0" style="stop-color:rgb(25,125,168);stop-opacity:1"/><stop offset="0" style="stop-color:rgb(25,125,168);stop-opacity:1"/><stop offset="1" style="stop-color:rgb(3,64,98);stop-opacity:1"/></linearGradient>
        <linearGradient id="_Linear2" x1="0" y1="0" x2="1" y2="0" gradientUnits="userSpaceOnUse" gradientTransform="matrix(510.235,0,0,-365.812,-480.598,168.732)"><stop offset="0" style="stop-color:rgb(25,125,168);stop-opacity:1"/><stop offset="0" style="stop-color:rgb(25,125,168);stop-opacity:1"/><stop offset="1" style="stop-color:rgb(3,64,98);stop-opacity:1"/></linearGradient>
        <linearGradient id="_Linear3" x1="0" y1="0" x2="1" y2="0" gradientUnits="userSpaceOnUse" gradientTransform="matrix(118.119,0,0,-119.564,-1.53831e-05,59.782)"><stop offset="0" style="stop-color:rgb(25,125,168);stop-opacity:1"/><stop offset="0" style="stop-color:rgb(25,125,168);stop-opacity:1"/><stop offset="1" style="stop-color:rgb(3,64,98);stop-opacity:1"/></linearGradient>
        <linearGradient id="_Linear4" x1="0" y1="0" x2="1" y2="0" gradientUnits="userSpaceOnUse" gradientTransform="matrix(69.2613,0,0,-84.6483,5258.95,-684.63)"><stop offset="0" style="stop-color:rgb(25,125,168);stop-opacity:1"/><stop offset="0" style="stop-color:rgb(25,125,168);stop-opacity:1"/><stop offset="1" style="stop-color:rgb(3,64,98);stop-opacity:1"/></linearGradient>
        <linearGradient id="_Linear5" x1="0" y1="0" x2="1" y2="0" gradientUnits="userSpaceOnUse" gradientTransform="matrix(69.2613,0,0,-84.6483,5258.95,-684.63)"><stop offset="0" style="stop-color:rgb(25,125,168);stop-opacity:1"/><stop offset="0" style="stop-color:rgb(25,125,168);stop-opacity:1"/><stop offset="1" style="stop-color:rgb(3,64,98);stop-opacity:1"/></linearGradient>
        <linearGradient id="_Linear6" x1="0" y1="0" x2="1" y2="0" gradientUnits="userSpaceOnUse" gradientTransform="matrix(69.2613,0,0,-84.6483,5258.95,-684.63)"><stop offset="0" style="stop-color:rgb(25,125,168);stop-opacity:1"/><stop offset="0" style="stop-color:rgb(25,125,168);stop-opacity:1"/><stop offset="1" style="stop-color:rgb(3,64,98);stop-opacity:1"/></linearGradient>
        <linearGradient id="_Linear7" x1="0" y1="0" x2="1" y2="0" gradientUnits="userSpaceOnUse" gradientTransform="matrix(69.2613,0,0,-84.6483,5258.95,-684.63)"><stop offset="0" style="stop-color:rgb(25,125,168);stop-opacity:1"/><stop offset="0" style="stop-color:rgb(25,125,168);stop-opacity:1"/><stop offset="1" style="stop-color:rgb(3,64,98);stop-opacity:1"/></linearGradient>
        <linearGradient id="_Linear8" x1="0" y1="0" x2="1" y2="0" gradientUnits="userSpaceOnUse" gradientTransform="matrix(65.4461,0,0,-81.787,5346.7,-684.63)"><stop offset="0" style="stop-color:rgb(25,125,168);stop-opacity:1"/><stop offset="0" style="stop-color:rgb(25,125,168);stop-opacity:1"/><stop offset="1" style="stop-color:rgb(3,64,98);stop-opacity:1"/></linearGradient>
        <linearGradient id="_Linear9" x1="0" y1="0" x2="1" y2="0" gradientUnits="userSpaceOnUse" gradientTransform="matrix(65.4461,0,0,-81.787,5346.7,-684.63)"><stop offset="0" style="stop-color:rgb(25,125,168);stop-opacity:1"/><stop offset="0" style="stop-color:rgb(25,125,168);stop-opacity:1"/><stop offset="1" style="stop-color:rgb(3,64,98);stop-opacity:1"/></linearGradient>
        <linearGradient id="_Linear10" x1="0" y1="0" x2="1" y2="0" gradientUnits="userSpaceOnUse" gradientTransform="matrix(65.4461,0,0,-81.787,5346.7,-684.63)"><stop offset="0" style="stop-color:rgb(25,125,168);stop-opacity:1"/><stop offset="0" style="stop-color:rgb(25,125,168);stop-opacity:1"/><stop offset="1" style="stop-color:rgb(3,64,98);stop-opacity:1"/></linearGradient>
        <linearGradient id="_Linear11" x1="0" y1="0" x2="1" y2="0" gradientUnits="userSpaceOnUse" gradientTransform="matrix(65.4461,0,0,-81.787,5346.7,-684.63)"><stop offset="0" style="stop-color:rgb(25,125,168);stop-opacity:1"/><stop offset="0" style="stop-color:rgb(25,125,168);stop-opacity:1"/><stop offset="1" style="stop-color:rgb(3,64,98);stop-opacity:1"/></linearGradient>
    </defs>
</svg>
