<svg xmlns="http://www.w3.org/2000/svg" xmlns:xlink="http://www.w3.org/1999/xlink" viewBox="0 0 48 48"><defs><style>.cls-1{fill:url(#Degradado_sin_nombre_8);}.cls-2{fill:url(#Degradado_sin_nombre_8-2);}.cls-3{fill:url(#Degradado_sin_nombre_8-3);}</style><linearGradient id="Degradado_sin_nombre_8" x1="2" y1="24.04" x2="20.85" y2="24.04" gradientUnits="userSpaceOnUse"><stop offset="0" stop-color="#1a7fb6"/><stop offset="1" stop-color="#0c3d5f"/></linearGradient><linearGradient id="Degradado_sin_nombre_8-2" x1="27.15" y1="23.96" x2="46" y2="23.96" xlink:href="#Degradado_sin_nombre_8"/><linearGradient id="Degradado_sin_nombre_8-3" x1="16.8" y1="37.38" x2="31.63" y2="37.38" xlink:href="#Degradado_sin_nombre_8"/></defs><g id="Capa_4" data-name="Capa 4"><path class="cls-1" d="M20.67,25.08a1.47,1.47,0,0,0-.05-1.5l-7-11.08A2.7,2.7,0,0,1,13.15,11V4.3A2.23,2.23,0,0,0,10.9,2.08H2V4.52h8.71V11a5.14,5.14,0,0,0,.81,2.77l6.1,9.6H13.56a2.83,2.83,0,0,0-2.85,2.81V31a.63.63,0,0,1-.2.47L8.85,33a1.53,1.53,0,0,0-.45,1.08,1.5,1.5,0,0,0,.45,1.08l1.7,1.65a.55.55,0,0,1,.16.38v6.34H2V46h8.9a2.24,2.24,0,0,0,2.25-2.22V37.22a3,3,0,0,0-.91-2.13l-1-1,1-.94a3.11,3.11,0,0,0,1-2.22V26.22a.39.39,0,0,1,.41-.37h5.81A1.47,1.47,0,0,0,20.67,25.08Z"/><path class="cls-2" d="M37.29,11V4.44H46V2H37.1a2.24,2.24,0,0,0-2.25,2.22V11a2.72,2.72,0,0,1-.42,1.46l-7,11.08A1.45,1.45,0,0,0,27.33,25a1.47,1.47,0,0,0,1.3.77h5.81a.39.39,0,0,1,.41.37v4.74a3.11,3.11,0,0,0,.95,2.22l1,.94-1,1a3,3,0,0,0-.91,2.13V43.7a2.23,2.23,0,0,0,2.25,2.22H46V43.48H37.29V37.14a.57.57,0,0,1,.16-.38l1.7-1.65a1.51,1.51,0,0,0,0-2.15l-1.66-1.61a.67.67,0,0,1-.2-.47V26.14a2.83,2.83,0,0,0-2.85-2.81H30.38l6.1-9.59A5.14,5.14,0,0,0,37.29,11Z"/><path class="cls-3" d="M31.42,31.28a5.31,5.31,0,0,0-2.28.72l-1,.62c-.37.23-.73.45-1.09.7-.72.51-1.4,1.08-2.08,1.65L22.8,36.8l-2.2,1.9c-.17-.34-.35-.67-.55-1a1.59,1.59,0,0,0-1-.76,2.77,2.77,0,0,0-1.28,0,4.88,4.88,0,0,0-.64.23c-.19.1-.44.22-.36.47s.21.19.34.24l.29.11h.07l.09.05a1.19,1.19,0,0,1,.35.32,4.74,4.74,0,0,1,.51.94c.33.72.63,1.46.91,2.2.14.38.28.76.41,1.14.06.18.11.36.18.54a.38.38,0,0,0,.41.25c.18,0,.29-.19.4-.33a4.25,4.25,0,0,0,.27-.46c.19-.33.39-.65.59-1a32.8,32.8,0,0,1,2.74-3.57c.5-.57,1-1.13,1.52-1.69s1.07-1.15,1.65-1.67,1.13-1,1.71-1.47A19.39,19.39,0,0,1,31,32l.49-.29A.22.22,0,0,0,31.42,31.28ZM17.08,40.19h0Z"/></g></svg>